<svg fill="none" xmlns="http://www.w3.org/2000/svg" viewBox="0 0 36 36" class="design-iconfont">
  <path d="M1.35793 16.6251C1.35793 16.6251 2.49706 21.1165 4.95291 22.3774C9.33736 24.6302 12.1392 22.3744 13.8063 22.7408C15.4734 23.1071 19.0245 26.9738 22.5707 26.086C25.5305 25.3491 27.1531 23.9855 27.7888 23.0589C28.0013 23.1234 28.2176 23.1738 28.4366 23.2097C30.9064 23.6153 33.2197 22.032 33.5895 19.6867C33.744 18.7132 33.3109 16.2648 31.1522 15.7154C30.4611 15.5415 28.7598 16.0072 28.1948 16.544C28.0456 16.6845 27.9274 16.8552 27.8477 17.0449C27.7681 17.2345 27.7288 17.439 27.7325 17.645C27.7361 17.851 27.7826 18.0539 27.869 18.2406C27.9553 18.4273 28.0795 18.5936 28.2335 18.7287C28.9536 19.3267 29.9615 18.7169 29.9615 18.7169C29.5306 19.5607 28.1277 20.0189 27.448 19.1408C26.7684 18.2627 26.3376 15.8655 28.5699 15.0649C29.0486 14.8898 29.5461 14.7726 30.052 14.7157C30.0489 13.6886 29.7043 12.6923 29.0736 11.8865C28.4429 11.0807 27.5626 10.512 26.5737 10.2716C25.5848 10.0312 24.5447 10.1331 23.6199 10.5608C22.6952 10.9885 21.9394 11.7174 21.4737 12.6305C21.3434 12.5986 21.2089 12.5716 21.0715 12.5479C18.6017 12.1423 16.2884 13.7256 15.9186 16.071C15.8208 16.7228 15.8766 17.3887 16.0813 18.0147C16.286 18.6407 16.634 19.2092 17.0969 19.674C17.6588 19.9551 18.2792 20.0962 18.9061 20.0854C19.9596 20.0384 21.5896 19.057 21.0863 17.6986C20.6256 16.4551 19.3404 17.0038 19.7964 18.1854C18.2532 17.5824 19.6499 15.6963 21.1173 16.2943C23.001 17.0593 22.4809 19.4334 21.146 20.4247C19.5033 21.6467 17.684 20.816 15.8532 19.8134C14.6782 19.3734 13.4894 19.1382 12.125 19.7195C9.81389 20.7005 9.35532 21.7892 6.93385 21.3503C4.51238 20.9114 1.35793 16.6251 1.35793 16.6251ZM9.70185 22.0317C9.70185 22.0317 9.941 21.7301 11.5829 21.0278C13.2247 20.3256 15.0029 20.6118 16.6862 21.1714C18.3695 21.7309 21.2252 23.0637 23.4353 21.1943C25.6453 19.3249 22.8035 16.4024 22.5162 15.5376C22.229 14.6729 22.9568 13.3347 24.5315 13.3954C26.1062 13.4561 26.4402 14.9598 26.4402 14.9598C25.6498 14.2054 24.0814 14.1676 23.4829 14.8719C23.0131 15.4247 24.8807 17.8527 25.2483 19.1688C25.6159 20.4848 24.3309 22.6066 22.4849 23.3198C20.639 24.0331 16.6446 22.0895 14.9848 21.6775C13.325 21.2655 9.70185 22.0317 9.70185 22.0317Z" fill="url(#0qic2mu7p__paint0_linear_1010_12290)"/>
  <defs>
    <linearGradient id="0qic2mu7p__paint0_linear_1010_12290" x1="33.4999" y1="14.5" x2="6.91066" y2="23.7434" gradientUnits="userSpaceOnUse">
      <stop stop-color="#EEDDB2" stop-opacity=".9"/>
      <stop offset="1" stop-color="#ECC08F" stop-opacity=".2"/>
    </linearGradient>
  </defs>
</svg>
