<svg fill="none" xmlns="http://www.w3.org/2000/svg" viewBox="0 0 51 50" class="design-iconfont">
  <path fill="#724641" d="M25.3333 0A25 25 0 1 0 25.3333 50A25 25 0 1 0 25.3333 0Z"/>
  <path d="M12.3333 19.6818H40.3333M37.8333 34H14.8333C14.1702 34 13.5343 33.7486 13.0655 33.301C12.5966 32.8535 12.3333 32.2465 12.3333 31.6136V15.3864C12.3333 14.7535 12.5966 14.1465 13.0655 13.6989C13.5343 13.2514 14.1702 13 14.8333 13H19.5764C20.07 13 20.5526 13.1395 20.9633 13.4009L22.7033 14.5082C23.1139 14.7696 23.5965 14.9091 24.0901 14.9091H37.8333C38.4963 14.9091 39.1322 15.1605 39.601 15.608C40.0699 16.0556 40.3333 16.6626 40.3333 17.2955V31.6136C40.3333 32.2465 40.0699 32.8535 39.601 33.301C39.1322 33.7486 38.4963 34 37.8333 34Z" stroke="#EEDDB2" stroke-width="1.5" stroke-linecap="round" stroke-linejoin="round"/>
  <path d="M30.3333 27C30.3333 24.7917 28.5416 23 26.3333 23C24.1249 23 22.3333 24.7917 22.3333 27C22.3333 29.2083 24.1249 31 26.3333 31C28.5416 31 30.3333 29.2083 30.3333 27Z" stroke="#EEDDB2" stroke-width=".8" stroke-miterlimit="10"/>
  <path d="M27.3333 28L25.3333 26M25.3333 28L27.3333 26" stroke="#EEDDB2" stroke-width=".8" stroke-linecap="round" stroke-linejoin="round"/>
</svg>
