<svg xmlns="http://www.w3.org/2000/svg" fill="none" viewBox="0 0 50 50" class="design-iconfont">
  <path fill="#3D3D3D" d="M25 0A25 25 0 1 0 25 50A25 25 0 1 0 25 0Z"/>
  <path d="M30.4375 16H16.5625C14.595 16 13 17.595 13 19.5625V33.4375C13 35.405 14.595 37 16.5625 37H30.4375C32.405 37 34 35.405 34 33.4375V19.5625C34 17.595 32.405 16 30.4375 16Z" stroke="#898989" stroke-width="1.5" stroke-linejoin="round"/>
  <path d="M31 16C30.9974 15.0726 30.6278 14.6838 29.972 14.028C29.3162 13.3722 28.4274 13.0026 27.5 13H14C12.9401 13.0031 11.9245 13.4256 11.175 14.175C10.4256 14.9245 10.0031 15.9401 10 17V30.5C10.0026 31.4274 10.3722 32.3162 11.028 32.972C11.6838 33.6278 12.0726 33.9974 13 34" stroke="#898989" stroke-width="1.5" stroke-linecap="round" stroke-linejoin="round"/>
  <path stroke="#898989" stroke-linecap="round" d="M17.5 20.5L29.5 20.5"/>
  <path stroke="#898989" stroke-linecap="round" d="M17.5 24.5L29.5 24.5"/>
  <path stroke="#898989" stroke-linecap="round" d="M17.5 28.5L29.5 28.5"/>
  <path stroke="#898989" stroke-linecap="round" d="M17.5 32.5L24.5 32.5"/>
  <path d="M38 19C37.4598 19 36.9657 19.368 37.0019 19.8L37.5009 30.6C37.5009 30.7061 37.5535 30.8078 37.6471 30.8828C37.7407 30.9579 37.8676 31 38 31C38.1324 31 38.2593 30.9579 38.3529 30.8828C38.4465 30.8078 38.4991 30.7061 38.4991 30.6L38.7486 25.2L38.9981 19.8C39.0343 19.368 38.5402 19 38 19Z" fill="#898989" stroke="#898989" stroke-width=".4" stroke-linecap="round" stroke-linejoin="round"/>
  <path d="M39 36C39 36.5523 38.5523 37 38 37C37.4477 37 37 36.5523 37 36C37 35.4477 37.4477 35 38 35C38.5523 35 39 35.4477 39 36Z" fill="#898989" stroke="#898989" stroke-width=".4" stroke-linecap="round" stroke-linejoin="round"/>
</svg>
