<svg xmlns="http://www.w3.org/2000/svg" fill="none" viewBox="0 0 50 50" class="design-iconfont">
  <path fill="#3D3D3D" d="M25 0A25 25 0 1 0 25 50A25 25 0 1 0 25 0Z"/>
  <path d="M12 19.6818H40M37.5 34H14.5C13.837 34 13.2011 33.7486 12.7322 33.301C12.2634 32.8535 12 32.2465 12 31.6136V15.3864C12 14.7535 12.2634 14.1465 12.7322 13.6989C13.2011 13.2514 13.837 13 14.5 13H19.2431C19.7367 13 20.2193 13.1395 20.63 13.4009L22.37 14.5082C22.7807 14.7696 23.2633 14.9091 23.7569 14.9091H37.5C38.163 14.9091 38.7989 15.1605 39.2678 15.608C39.7366 16.0556 40 16.6626 40 17.2955V31.6136C40 32.2465 39.7366 32.8535 39.2678 33.301C38.7989 33.7486 38.163 34 37.5 34Z" stroke="#898989" stroke-width="1.5" stroke-linecap="round" stroke-linejoin="round"/>
  <path d="M30 27C30 24.7917 28.2083 23 26 23C23.7917 23 22 24.7917 22 27C22 29.2083 23.7917 31 26 31C28.2083 31 30 29.2083 30 27Z" stroke="#898989" stroke-width=".8" stroke-miterlimit="10"/>
  <path d="M27 28L25 26M25 28L27 26" stroke="#898989" stroke-width=".8" stroke-linecap="round" stroke-linejoin="round"/>
</svg>
