<svg fill="none" xmlns="http://www.w3.org/2000/svg" viewBox="0 0 51 50" class="design-iconfont">
  <path fill="#724641" d="M25.6667 0A25 25 0 1 0 25.6667 50A25 25 0 1 0 25.6667 0Z"/>
  <path d="M31.1042 16H17.2292C15.2617 16 13.6667 17.595 13.6667 19.5625V33.4375C13.6667 35.405 15.2617 37 17.2292 37H31.1042C33.0718 37 34.6667 35.405 34.6667 33.4375V19.5625C34.6667 17.595 33.0718 16 31.1042 16Z" stroke="#EEDDB2" stroke-width="1.5" stroke-linejoin="round"/>
  <path d="M31.6667 16C31.6641 15.0726 31.2945 14.6838 30.6387 14.028C29.9829 13.3722 29.0942 13.0026 28.1667 13H14.6667C13.6068 13.0031 12.5912 13.4256 11.8418 14.175C11.0923 14.9245 10.6699 15.9401 10.6667 17V30.5C10.6694 31.4274 11.039 32.3162 11.6948 32.972C12.3506 33.6278 12.7393 33.9974 13.6667 34" stroke="#EEDDB2" stroke-width="1.5" stroke-linecap="round" stroke-linejoin="round"/>
  <path stroke="#EEDDB2" stroke-linecap="round" d="M18.1667 20.5L30.1667 20.5"/>
  <path stroke="#EEDDB2" stroke-linecap="round" d="M18.1667 24.5L30.1667 24.5"/>
  <path stroke="#EEDDB2" stroke-linecap="round" d="M18.1667 28.5L30.1667 28.5"/>
  <path stroke="#EEDDB2" stroke-linecap="round" d="M18.1667 32.5L25.1667 32.5"/>
  <path d="M38.6667 19C38.1265 19 37.6324 19.368 37.6686 19.8L38.1677 30.6C38.1677 30.7061 38.2203 30.8078 38.3139 30.8828C38.4074 30.9579 38.5344 31 38.6667 31C38.7991 31 38.926 30.9579 39.0196 30.8828C39.1132 30.8078 39.1658 30.7061 39.1658 30.6L39.4153 25.2L39.6649 19.8C39.7011 19.368 39.207 19 38.6667 19Z" fill="#EEDDB2" stroke="#EEDDB2" stroke-width=".4" stroke-linecap="round" stroke-linejoin="round"/>
  <path d="M39.6667 36C39.6667 36.5523 39.219 37 38.6667 37C38.1145 37 37.6667 36.5523 37.6667 36C37.6667 35.4477 38.1145 35 38.6667 35C39.219 35 39.6667 35.4477 39.6667 36Z" fill="#EEDDB2" stroke="#EEDDB2" stroke-width=".4" stroke-linecap="round" stroke-linejoin="round"/>
</svg>
