<?xml version="1.0" standalone="no"?><!DOCTYPE svg PUBLIC "-//W3C//DTD SVG 1.1//EN" "http://www.w3.org/Graphics/SVG/1.1/DTD/svg11.dtd"><svg t="1661914825605" class="icon" viewBox="0 0 1024 1024" version="1.1" xmlns="http://www.w3.org/2000/svg" p-id="5706" width="200" height="200" data-spm-anchor-id="a313x.7781069.0.i7" xmlns:xlink="http://www.w3.org/1999/xlink"><path d="M137.13408 831.92604445a52.72007111 52.72007111 0 0 1-7.39783111-0.52337778c-28.66744889-4.01976889-48.99271111-30.65400889-45.30517334-59.35559112 18.81088-173.63854222 80.67640889-302.72967111 183.90926223-383.84298666 74.44252445-58.48746667 168.34901333-91.22702222 279.12533333-97.30275556l6.40113778-0.35498666 0.01137778-96.45169778a62.34112 62.34112 0 0 1 17.32608-42.04771556 63.32871111 63.32871111 0 0 1 45.40871111-19.42755555c16.67868445 0 32.29582222 6.43072 44.06385777 18.11683555L910.79111111 405.97731555c40.53333333 41.55847111 40.55608889 106.65187555 0.04096 148.18076445L660.59377778 809.10791111a62.41393778 62.41393778 0 0 1-42.33898667 18.01784889l-1.78289778 0.02958222c-34.17201778-0.00568889-61.71420445-26.84359111-62.59370666-61.10321777l-0.01137778-103.45358223-10.65528889-0.02844444c-96.42780445 0-271.70360889 19.00771555-362.30030222 146.32277333a53.09895111 53.09895111 0 0 1-43.74300445 23.03317334h-0.03527111z m406.06151111-228.64213334c15.02321778 0 26.9312 0.42552889 34.04913778 0.67584l0.70542222 0.02958222c2.52814222 0.09329778 4.39751111 0.15701333 5.55690667 0.15701334a29.68007111 29.68007111 0 0 1 29.65048889 29.64593778v139.01141333l255.30026666-260.10510223c17.84832-18.29091555 17.81418667-46.95836445-0.06485333-65.27886222L613.15982222 186.93575111v132.62734222a29.66869333 29.66869333 0 0 1-29.63911111 29.63911112c-169.46858667 0-382.35249778 66.7648-434.16462222 384.85105777l-3.58741334 22.01486223 15.21550223-16.31118223C271.77073778 621.01731555 448.00796445 603.28391111 543.19559111 603.28391111z" fill="#fffefa" p-id="5707" data-spm-anchor-id="a313x.7781069.0.i5" class="selected"></path></svg>