<svg xmlns="http://www.w3.org/2000/svg" fill="none" viewBox="0 0 50 50" class="design-iconfont">
  <path fill="#3D3D3D" d="M25 0A25 25 0 1 0 25 50A25 25 0 1 0 25 0Z"/>
  <path d="M11.9999 22.3846H38.0001M11.2137 23.0891L24.1981 38.6349C24.2925 38.7485 24.4139 38.8405 24.5529 38.9038C24.692 38.9671 24.845 39 25 39C25.155 39 25.308 38.9671 25.4471 38.9038C25.5861 38.8405 25.7075 38.7485 25.8019 38.6349L38.7863 23.0891C38.914 22.9356 38.9881 22.75 38.9987 22.5567C39.0093 22.3635 38.9559 22.1719 38.8457 22.0073L34.4413 15.4448C34.3506 15.309 34.2239 15.1968 34.073 15.119C33.9222 15.0411 33.7523 15.0002 33.5794 15H16.4206C16.2477 15.0002 16.0778 15.0411 15.927 15.119C15.7761 15.1968 15.6494 15.309 15.5587 15.4448L11.1543 22.0073C11.0441 22.1719 10.9907 22.3635 11.0013 22.5567C11.0119 22.75 11.086 22.9356 11.2137 23.0891V23.0891Z" stroke="#898989" stroke-width="1.5" stroke-linecap="round" stroke-linejoin="round"/>
  <path d="M33 15.96L30.3333 22.68L25 15M17 15.96L19.6667 22.68L25 15M25 39L19.6667 22.68M25 39L30.3333 22.68" stroke="#898989" stroke-width="1.5" stroke-linecap="round" stroke-linejoin="round"/>
</svg>
