<svg xmlns="http://www.w3.org/2000/svg" fill="none" viewBox="0 0 50 50" class="design-iconfont">
  <path fill="#3D3D3D" d="M25 0A25 25 0 1 0 25 50A25 25 0 1 0 25 0Z"/>
  <path d="M11.584 16.292V32H13.388V19.086H13.454L22.386 32H24.234V16.292H22.43V29.074H22.364L13.476 16.292H11.584ZM31.6565 21.808C30.1305 21.808 28.9265 22.298 28.0585 23.306C27.2185 24.258 26.8125 25.49 26.8125 27.016C26.8125 28.528 27.2185 29.76 28.0585 30.712C28.9265 31.692 30.1305 32.196 31.6565 32.196C33.1685 32.196 34.3725 31.706 35.2545 30.726C36.0945 29.774 36.5145 28.542 36.5145 27.016C36.5145 25.476 36.0945 24.23 35.2545 23.292C34.3725 22.298 33.1685 21.808 31.6565 21.808ZM31.6565 23.152C32.7205 23.152 33.5465 23.488 34.1205 24.188C34.6805 24.874 34.9745 25.812 34.9745 27.016C34.9745 28.206 34.6805 29.144 34.1205 29.816C33.5465 30.502 32.7205 30.852 31.6565 30.852C30.5925 30.852 29.7665 30.488 29.1785 29.788C28.6185 29.102 28.3385 28.178 28.3385 27.016C28.3385 25.84 28.6185 24.916 29.1785 24.23C29.7665 23.502 30.5925 23.152 31.6565 23.152ZM39.7366 29.858C39.4126 29.858 39.1606 29.966 38.9626 30.182C38.7466 30.398 38.6386 30.65 38.6386 30.974C38.6386 31.28 38.7466 31.532 38.9626 31.748C39.1606 31.964 39.4126 32.072 39.7366 32.072C40.0246 32.072 40.2946 31.964 40.5106 31.748C40.7266 31.532 40.8346 31.28 40.8346 30.974C40.8346 30.65 40.7266 30.398 40.5106 30.182C40.2946 29.966 40.0246 29.858 39.7366 29.858Z" fill="#898989"/>
</svg>
