<svg fill="none" xmlns="http://www.w3.org/2000/svg" viewBox="0 0 36 36" class="design-iconfont">
  <path d="M34.6421 16.6251C34.6421 16.6251 33.5029 21.1165 31.0471 22.3774C26.6626 24.6302 23.8608 22.3744 22.1937 22.7408C20.5266 23.1071 16.9755 26.9738 13.4293 26.086C10.4695 25.3491 8.84686 23.9855 8.21117 23.0589C7.99875 23.1234 7.78237 23.1738 7.56342 23.2097C5.09362 23.6153 2.78028 22.032 2.41052 19.6867C2.25605 18.7132 2.68915 16.2648 4.84778 15.7154C5.53889 15.5415 7.24023 16.0072 7.80521 16.544C7.95438 16.6845 8.07262 16.8552 8.15226 17.0449C8.2319 17.2345 8.27116 17.439 8.26751 17.645C8.26385 17.851 8.21736 18.0539 8.13105 18.2406C8.04473 18.4273 7.92051 18.5936 7.76646 18.7287C7.04638 19.3267 6.03853 18.7169 6.03853 18.7169C6.46937 19.5607 7.87235 20.0189 8.55196 19.1408C9.23157 18.2627 9.66235 15.8655 7.43009 15.0649C6.95145 14.8898 6.45395 14.7726 5.94799 14.7157C5.95113 13.6886 6.29566 12.6923 6.92636 11.8865C7.55705 11.0807 8.43739 10.512 9.42628 10.2716C10.4152 10.0312 11.4553 10.1331 12.3801 10.5608C13.3048 10.9885 14.0606 11.7174 14.5263 12.6305C14.6566 12.5986 14.7911 12.5716 14.9285 12.5479C17.3983 12.1423 19.7116 13.7256 20.0814 16.071C20.1792 16.7228 20.1234 17.3887 19.9187 18.0147C19.714 18.6407 19.366 19.2092 18.9031 19.674C18.3412 19.9551 17.7208 20.0962 17.0939 20.0854C16.0404 20.0384 14.4104 19.057 14.9137 17.6986C15.3744 16.4551 16.6596 17.0038 16.2036 18.1854C17.7468 17.5824 16.3501 15.6963 14.8827 16.2943C12.999 17.0593 13.5191 19.4334 14.854 20.4247C16.4967 21.6467 18.316 20.816 20.1468 19.8134C21.3218 19.3734 22.5106 19.1382 23.875 19.7195C26.1861 20.7005 26.6447 21.7892 29.0661 21.3503C31.4876 20.9114 34.6421 16.6251 34.6421 16.6251ZM26.2982 22.0317C26.2982 22.0317 26.059 21.7301 24.4171 21.0278C22.7753 20.3256 20.9971 20.6118 19.3138 21.1714C17.6305 21.7309 14.7748 23.0637 12.5647 21.1943C10.3547 19.3249 13.1965 16.4024 13.4838 15.5376C13.771 14.6729 13.0432 13.3347 11.4685 13.3954C9.89375 13.4561 9.55977 14.9598 9.55977 14.9598C10.3502 14.2054 11.9186 14.1676 12.5171 14.8719C12.9869 15.4247 11.1193 17.8527 10.7517 19.1688C10.3841 20.4848 11.6691 22.6066 13.5151 23.3198C15.361 24.0331 19.3554 22.0895 21.0152 21.6775C22.675 21.2655 26.2982 22.0317 26.2982 22.0317Z" fill="url(#bxzxvr532__paint0_linear_1010_12293)"/>
  <defs>
    <linearGradient id="bxzxvr532__paint0_linear_1010_12293" x1="6.50012" y1="9.00003" x2="30.6475" y2="24.2669" gradientUnits="userSpaceOnUse">
      <stop stop-color="#EEDDB2" stop-opacity=".9"/>
      <stop offset=".972722" stop-color="#ECC08F" stop-opacity=".2"/>
    </linearGradient>
  </defs>
</svg>
