<svg fill="none" xmlns="http://www.w3.org/2000/svg" viewBox="0 0 20 20" class="design-iconfont">
  <path d="M18.8966 20H1.03448C0.448276 20 0 19.5779 0 19.0584V2.82468C0 2.30519 0.482759 1.88312 1.03448 1.88312H2.75862V2.82468C2.75862 3.86364 3.68966 4.70779 4.82759 4.70779C5.96552 4.70779 6.89655 3.86364 6.89655 2.82468V1.88312H7.93103V2.82468C7.93103 3.86364 8.86207 4.70779 10 4.70779C11.1379 4.70779 12.069 3.86364 12.069 2.82468V1.88312H13.1034V2.82468C13.1034 3.86364 14.0345 4.70779 15.1724 4.70779C16.3103 4.70779 17.2414 3.86364 17.2414 2.82468V1.88312H18.9655C19.5517 1.88312 20 2.30519 20 2.82468V19.0584C19.931 19.5779 19.4828 20 18.8966 20ZM16.1724 7.20779H3.7931C3.24138 7.20779 2.75862 7.62987 2.75862 8.14935C2.75862 8.66883 3.24138 9.09091 3.7931 9.09091H16.1379C16.7241 9.09091 17.1724 8.66883 17.1724 8.14935C17.1724 7.62987 16.7241 7.20779 16.1724 7.20779ZM16.1724 11.2662H3.7931C3.24138 11.2662 2.75862 11.6883 2.75862 12.2078C2.75862 12.7273 3.24138 13.1494 3.7931 13.1494H16.1379C16.7241 13.1494 17.1724 12.7273 17.1724 12.2078C17.1724 11.6883 16.7241 11.2662 16.1724 11.2662ZM16.3448 15.3247H3.62069C3.13793 15.3247 2.75862 15.6818 2.75862 16.1039C2.75862 16.526 3.13793 16.8831 3.62069 16.8831H16.3103C16.7586 16.8831 17.1724 16.526 17.1724 16.1039C17.1724 15.6818 16.7931 15.3247 16.3448 15.3247ZM15.1379 3.76623C14.5517 3.76623 14.1034 3.34416 14.1034 2.82468V0.941558C14.1034 0.422078 14.5517 0 15.1379 0C15.7241 0 16.1724 0.422078 16.1724 0.941558V2.82468C16.1724 3.34416 15.6897 3.76623 15.1379 3.76623V3.76623ZM9.96552 3.76623C9.41379 3.76623 8.93103 3.34416 8.93103 2.82468V0.941558C8.93103 0.422078 9.41379 0 9.96552 0C10.5172 0 11 0.422078 11 0.941558V2.82468C11 3.34416 10.5517 3.76623 9.96552 3.76623V3.76623ZM4.82759 3.76623C4.27586 3.76623 3.7931 3.34416 3.7931 2.82468V0.941558C3.7931 0.422078 4.27586 0 4.82759 0C5.37931 0 5.86207 0.422078 5.86207 0.941558V2.82468C5.86207 3.34416 5.41379 3.76623 4.82759 3.76623V3.76623Z" fill="url(#fb8pw9gci__paint0_linear_1043_23251)"/>
  <defs>
    <linearGradient id="fb8pw9gci__paint0_linear_1043_23251" x1="-2.7e-7" y1="1" x2="18.5" y2="20" gradientUnits="userSpaceOnUse">
      <stop stop-color="#AD9173"/>
      <stop offset="1" stop-color="#333" stop-opacity="0"/>
    </linearGradient>
  </defs>
</svg>
