<svg fill="none" xmlns="http://www.w3.org/2000/svg" viewBox="0 0 20 20" class="design-iconfont">
  <path d="M2.7888 13.5269L9.04974 16.4561C9.42867 16.6272 9.60749 16.7428 9.98643 16.7428C10.3083 16.7442 10.6248 16.6568 10.904 16.4894C10.939 16.4646 10.976 16.443 11.0147 16.4249L16.9265 13.8291C17.1106 13.7503 17.3171 13.7503 17.5013 13.8291L19.579 14.7203C20.0793 14.9359 20.0835 15.5804 19.5875 15.8004L10.2972 19.9386C10.2035 19.9799 10.1026 20.0007 10.0009 20C9.89914 19.9992 9.79861 19.9768 9.70542 19.9342L0.383208 15.6338C-0.106427 15.4048 -0.0979111 14.7692 0.400239 14.5559L2.7888 13.5269V13.5269ZM2.50567 8.48417C2.68645 8.40697 2.88903 8.40697 3.06981 8.48417L9.20088 11.1044L9.27965 11.1311C9.84117 11.2929 10.4355 11.282 10.9912 11.1L16.9243 8.48861C17.1079 8.40839 17.3144 8.4068 17.4991 8.48417L19.6003 9.3887C20.0963 9.60205 20.107 10.2399 19.6173 10.4644L10.2994 14.767C10.2051 14.8103 10.1032 14.8326 10.0003 14.8326C9.89729 14.8326 9.79543 14.8103 9.70116 14.767L0.383208 10.4666C-0.106427 10.2399 -0.0979111 9.60428 0.400239 9.39092L2.50567 8.48417ZM9.70755 0.0611179C9.79993 0.0207749 9.89907 0 9.9992 0C10.0993 0 10.1985 0.0207749 10.2909 0.0611179L19.6301 4.22153C20.1197 4.43932 20.124 5.06828 19.6386 5.29274L10.2994 9.60428C10.2051 9.64756 10.1032 9.66991 10.0003 9.66991C9.89729 9.66991 9.79543 9.64756 9.70116 9.60428L0.359791 5.29052C-0.123457 5.06828 -0.1192 4.4371 0.368306 4.2193L9.70755 0.0611179Z" fill="url(#1vseqqxga__paint0_linear_902_404)"/>
  <defs>
    <linearGradient id="1vseqqxga__paint0_linear_902_404" x1="10" y1="0" x2="10" y2="20" gradientUnits="userSpaceOnUse">
      <stop stop-color="#AD9173"/>
      <stop offset=".234375" stop-color="#AD9173" stop-opacity=".39"/>
      <stop offset="1" stop-color="#AD9173" stop-opacity="0"/>
    </linearGradient>
  </defs>
</svg>
