<svg width="18" height="18" viewBox="0 0 18 18" fill="none" xmlns="http://www.w3.org/2000/svg">
<path d="M9 16.4999C12.088 16.4999 14.6249 14.0527 14.6249 10.9117C14.6249 10.1406 14.5857 9.31394 14.1583 8.02923C13.7309 6.74455 13.6448 6.57873 13.1928 5.78534C12.9998 7.4044 11.9666 8.07918 11.7042 8.28085C11.7042 8.07104 11.0792 5.75084 10.1316 4.36259C9.20137 2.99988 7.93628 2.10585 7.19449 1.49988C7.19449 2.65104 6.87071 4.36259 6.40702 5.23465C5.94334 6.10672 5.85626 6.13848 5.27707 6.78745C4.69792 7.43643 4.43209 7.63686 3.94778 8.42429C3.46349 9.21175 3.375 10.2606 3.375 11.0317C3.375 14.1727 5.91199 16.4999 9 16.4999Z" stroke="url(#paint0_linear_923_2735)" stroke-width="0.964286" stroke-linejoin="round"/>
<path d="M10.9284 13.5001C10.9284 15.2391 9.96415 15.9108 8.99986 15.9108C8.03557 15.9108 7.07129 15.2391 7.07129 13.5001C7.07129 11.7611 8.27665 10.9086 8.03557 9.64294C9.3012 9.64294 10.9284 11.7611 10.9284 13.5001Z" stroke="url(#paint1_linear_923_2735)" stroke-width="0.964286" stroke-linecap="round" stroke-linejoin="round"/>
<defs>
<linearGradient id="paint0_linear_923_2735" x1="8.99996" y1="1.49988" x2="8.99996" y2="16.4999" gradientUnits="userSpaceOnUse">
<stop stop-color="#FF9900"/>
<stop offset="1" stop-color="#FF3D00"/>
</linearGradient>
<linearGradient id="paint1_linear_923_2735" x1="8.99986" y1="9.64294" x2="8.99986" y2="15.9108" gradientUnits="userSpaceOnUse">
<stop stop-color="#FF9900"/>
<stop offset="1" stop-color="#FF3D00"/>
</linearGradient>
</defs>
</svg>
