<svg fill="none" xmlns="http://www.w3.org/2000/svg" viewBox="0 0 12 12" class="design-iconfont">
  <path d="M2 7.45946L2.37212 7.06295C2.65119 7.27914 3.02333 7.49537 3.53484 7.49537C4.09296 7.49537 4.46511 7.24329 4.46511 6.84673C4.46511 6.41431 4.09294 6.1259 2.9767 6.1259V5.69359C3.95341 5.69359 4.2791 5.40538 4.2791 5.00897C4.2791 4.68464 4.00003 4.46843 3.53482 4.46843C3.16283 4.46843 2.83718 4.61254 2.55812 4.82874L2.13953 4.46843C2.55812 4.18012 3.02333 4 3.58144 4C4.46511 4 5.11627 4.36032 5.11627 4.97295C5.11627 5.40538 4.79058 5.72968 4.27912 5.87379V5.9098C4.8372 6.01789 5.30226 6.34214 5.30226 6.88264C5.30226 7.56758 4.55815 8 3.62791 8C2.8372 7.96369 2.32568 7.74745 2 7.45946V7.45946ZM6.32532 4.07199H7.62796C9.1628 4.07199 10 4.72063 10 5.9819C10 7.24328 9.11597 7.92779 7.6743 7.92779H6.32532V4.07199ZM7.5348 7.42314C8.60469 7.42314 9.16282 6.95482 9.16282 5.98189C9.16282 5.00894 8.60469 4.57652 7.5348 4.57652H7.06986V7.42313H7.5348V7.42314Z" fill="#EEDDB2"/>
  <path d="M11.6001 6.39986C11.3602 6.39986 11.1998 6.20014 11.1998 6C11.1998 3.48 9.36002 1.35997 6.95999 0.920045L7.83981 1.95996C8.00017 2.12003 7.95984 2.4 7.79996 2.55995C7.59984 2.67997 7.32001 2.67997 7.19998 2.48003L5.67994 0.639955C5.55994 0.519955 5.55994 0.36 5.63999 0.200031C5.67994 0.080045 5.84004 0 6.00001 0C9.32016 0 12 2.67997 12 6C12 6.24001 11.7998 6.39986 11.6001 6.39986ZM6.00001 12C2.67995 12 0 9.32015 0 6C0 5.76 0.200045 5.60004 0.399955 5.60004C0.599999 5.60004 0.800031 5.79995 0.800031 6C0.800031 8.52 2.64 10.6402 5.04002 11.0799L4.16005 10.0402C3.99994 9.87986 4.04003 9.6 4.19998 9.44015C4.35995 9.27983 4.64001 9.32015 4.79997 9.48L6.32016 11.3198C6.44016 11.4398 6.44016 11.6002 6.36002 11.76C6.32016 11.9198 6.15981 12 6.00001 12Z" fill="#EEDDB2"/>
</svg>
