<svg fill="none" xmlns="http://www.w3.org/2000/svg" viewBox="0 0 18 19" class="design-iconfont">
  <path d="M18 0.414767C18 -0.164376 17.4349 -0.0195897 17.26 0.151521C16.9236 0.506904 16.0355 1.23083 14.1383 1.61254C13.8423 1.67835 13.5597 1.70468 13.2637 1.70468C12.3487 1.70468 11.5818 1.41511 10.7072 1.07288C9.698 0.691177 8.55429 0.25682 6.99346 0.25682C6.85891 0.25682 6.72435 0.256819 6.5898 0.269982C4.89441 0.348956 3.42777 1.07288 2.36479 1.61254C2.05269 1.76544 1.73871 1.91462 1.42291 2.06006L1.32872 1.8363L1.31527 1.82314C1.16726 1.48092 0.763596 1.32297 0.413754 1.46776C0.252289 1.53357 0.117735 1.66519 0.0504579 1.8363C-0.0168193 1.99425 -0.0168193 2.19168 0.0504579 2.34963L7.06074 18.592C7.16838 18.8421 7.41058 19 7.69314 19C7.78733 19 7.88152 18.9868 7.96225 18.9473C8.31209 18.8026 8.47356 18.4077 8.32555 18.0655L5.93048 12.511C6.23996 12.0108 6.92618 11.1684 8.24481 10.813C8.66193 10.7077 9.09251 10.6419 9.56345 10.6419C10.465 10.6419 11.3396 10.8393 12.268 11.0499C13.1157 11.2342 13.9768 11.4317 14.8245 11.4317C16.1028 11.4317 17.085 10.9973 17.9327 10.0759C17.9596 10.0364 17.9865 9.9443 18 9.86533V0.414767Z" fill="url(#fp70fgqq9__paint0_linear_1000_511)"/>
  <defs>
    <linearGradient id="fp70fgqq9__paint0_linear_1000_511" x1=".9" y1="1.35714" x2="9.07072" y2="18.9672" gradientUnits="userSpaceOnUse">
      <stop stop-color="#AD9173" stop-opacity=".8"/>
      <stop offset=".354167" stop-color="#AD9173" stop-opacity=".4"/>
      <stop offset="1" stop-color="#AD9173" stop-opacity="0"/>
    </linearGradient>
  </defs>
</svg>
