<svg xmlns="http://www.w3.org/2000/svg" fill="none" viewBox="0 0 10 10" class="design-iconfont">
  <path d="M5 0C2.23867 0 0 2.23867 0 5C0 7.76133 2.23867 10 5 10C7.76133 10 10 7.76133 10 5C10 2.23867 7.76133 0 5 0ZM5 9.33333C2.60667 9.33333 0.666667 7.39333 0.666667 5C0.666667 2.60667 2.60667 0.666667 5 0.666667C7.39333 0.666667 9.33333 2.60667 9.33333 5C9.33333 7.39333 7.39333 9.33333 5 9.33333Z" fill="#FAEB29"/>
  <path d="M5 3.66667C4.91159 3.66667 4.82681 3.70179 4.7643 3.7643C4.70179 3.82681 4.66667 3.91159 4.66667 4V7.66667C4.66667 7.75507 4.70179 7.83986 4.7643 7.90237C4.82681 7.96488 4.91159 8 5 8C5.08841 8 5.17319 7.96488 5.2357 7.90237C5.29821 7.83986 5.33333 7.75507 5.33333 7.66667V4C5.33333 3.91159 5.29821 3.82681 5.2357 3.7643C5.17319 3.70179 5.08841 3.66667 5 3.66667ZM4.5 2.5C4.5 2.63261 4.55268 2.75979 4.64645 2.85355C4.74021 2.94732 4.86739 3 5 3C5.13261 3 5.25978 2.94732 5.35355 2.85355C5.44732 2.75979 5.5 2.63261 5.5 2.5C5.5 2.36739 5.44732 2.24021 5.35355 2.14645C5.25978 2.05268 5.13261 2 5 2C4.86739 2 4.74021 2.05268 4.64645 2.14645C4.55268 2.24021 4.5 2.36739 4.5 2.5Z" fill="#FAEB29"/>
</svg>
