<svg xmlns="http://www.w3.org/2000/svg" fill="none" viewBox="0 0 237 33" class="design-iconfont">
  <path d="M29.4294 5.80591H31.8647L34.5118 9.30003H34.6177L37.0529 5.80591H39.5941L35.7824 10.9941L39.8059 16.1824H37.2647L34.6177 12.5294L31.7588 16.0765H29.2177L33.2412 10.9412L29.4294 5.80591Z" fill="#B2BBBE" stroke="#B2BBBE" stroke-width=".211765"/>
  <path d="M1.05294 5.17065H6.55882L23.8176 22.4295V27.8295H18.3118L12.5412 22.0059L6.55882 27.9354H1.05294V22.5354L6.98235 16.553L1 10.5707V5.17065H1.05294Z" fill="#B2BBBE" stroke="#B2BBBE" stroke-width=".211765"/>
  <path d="M16.5118 12.3706H22.1235L23.9235 10.6765V5.0647H18.1L16.4059 6.8647V12.3706H16.5118Z" fill="#B2BBBE" stroke="#B2BBBE" stroke-width=".211765"/>
  <path d="M41.0765 5.91174H43.353V12.4997C43.353 12.4997 43.1412 14.7529 45.7353 14.7529C48.3294 14.7529 48.1706 12.4997 48.1706 12.4997V5.91174H50.3941V12.4997C50.3941 12.4997 50.5 16.5 45.7353 16.5C40.9706 16.5 41.0765 12.4997 41.0765 12.4997V5.91174Z" fill="#B2BBBE" stroke="#B2BBBE" stroke-width=".211765"/>
  <path fill-rule="evenodd" clip-rule="evenodd" d="M54.6823 12.4765V16.1824H52.3529V5.85889H57.7529C57.7529 5.85889 60.9823 6.01771 60.9823 9.16771C60.9823 12.3177 57.7529 12.4765 57.7529 12.4765H54.6823ZM54.5235 10.8882V7.49998H57.2764C57.2764 7.49998 59.1294 7.49998 59.1294 9.1941C59.1294 10.8882 57.2764 10.8882 57.2764 10.8882H54.5235Z" fill="#B2BBBE"/>
  <path d="M54.6823 16.1824V16.2883H54.7882V16.1824H54.6823ZM54.6823 12.4765V12.3707H54.5764V12.4765H54.6823ZM52.3529 16.1824H52.247V16.2883H52.3529V16.1824ZM52.3529 5.85889V5.753H52.247V5.85889H52.3529ZM57.7529 5.85889L57.7581 5.753H57.7529V5.85889ZM57.7529 12.4765V12.5825L57.7581 12.5823L57.7529 12.4765ZM54.5235 7.49998V7.3941H54.4176V7.49998H54.5235ZM54.5235 10.8882H54.4176V10.9941H54.5235V10.8882ZM54.7882 16.1824V12.4765H54.5764V16.1824H54.7882ZM52.3529 16.2883H54.6823V16.0765H52.3529V16.2883ZM52.247 5.85889V16.1824H52.4588V5.85889H52.247ZM57.7529 5.753H52.3529V5.96477H57.7529V5.753ZM61.0882 9.16771C61.0882 7.54656 60.2526 6.68701 59.4177 6.23876C59.0027 6.01595 58.5888 5.89485 58.2794 5.82934C58.1245 5.79653 57.9952 5.77754 57.9042 5.76672C57.8586 5.76131 57.8227 5.75794 57.7978 5.75591C57.7854 5.75489 57.7757 5.75421 57.769 5.75378C57.7657 5.75356 57.7631 5.75341 57.7613 5.7533C57.7603 5.75325 57.7596 5.75321 57.7591 5.75318C57.7588 5.75317 57.7586 5.75316 57.7585 5.75315C57.7584 5.75315 57.7583 5.75314 57.7582 5.75314C57.7582 5.75314 57.7581 5.75313 57.7529 5.85889C57.7477 5.96464 57.7477 5.96464 57.7476 5.96464C57.7476 5.96464 57.7476 5.96464 57.7477 5.96464C57.7477 5.96464 57.7478 5.96464 57.7479 5.96465C57.7481 5.96466 57.7486 5.96469 57.7492 5.96473C57.7505 5.9648 57.7525 5.96492 57.7553 5.9651C57.7609 5.96546 57.7693 5.96605 57.7806 5.96697C57.803 5.9688 57.8364 5.97192 57.8792 5.97701C57.9648 5.98718 58.0877 6.0052 58.2356 6.03651C58.5317 6.09921 58.9252 6.21469 59.3175 6.42534C60.0973 6.84399 60.8764 7.63886 60.8764 9.16771H61.0882ZM57.7529 12.4765C57.7581 12.5823 57.7582 12.5823 57.7582 12.5823C57.7583 12.5823 57.7584 12.5823 57.7585 12.5823C57.7586 12.5823 57.7588 12.5823 57.7591 12.5822C57.7596 12.5822 57.7603 12.5822 57.7613 12.5821C57.7631 12.582 57.7657 12.5819 57.769 12.5816C57.7757 12.5812 57.7854 12.5805 57.7978 12.5795C57.8227 12.5775 57.8586 12.5741 57.9042 12.5687C57.9952 12.5579 58.1245 12.5389 58.2794 12.5061C58.5888 12.4406 59.0027 12.3195 59.4177 12.0967C60.2526 11.6484 61.0882 10.7889 61.0882 9.16771H60.8764C60.8764 10.6966 60.0973 11.4914 59.3175 11.9101C58.9252 12.1207 58.5317 12.2362 58.2356 12.2989C58.0877 12.3302 57.9648 12.3482 57.8792 12.3584C57.8364 12.3635 57.803 12.3666 57.7806 12.3685C57.7693 12.3694 57.7609 12.37 57.7553 12.3703C57.7525 12.3705 57.7505 12.3706 57.7492 12.3707C57.7486 12.3707 57.7481 12.3708 57.7479 12.3708C57.7478 12.3708 57.7477 12.3708 57.7477 12.3708C57.7476 12.3708 57.7476 12.3708 57.7476 12.3708C57.7477 12.3708 57.7477 12.3708 57.7529 12.4765ZM54.6823 12.5824H57.7529V12.3707H54.6823V12.5824ZM54.4176 7.49998V10.8882H54.6294V7.49998H54.4176ZM57.2764 7.3941H54.5235V7.60587H57.2764V7.3941ZM59.2353 9.1941C59.2353 8.74999 59.1134 8.41009 58.9254 8.15231C58.7383 7.89567 58.4903 7.72671 58.2469 7.61545C58.0037 7.50427 57.7619 7.44921 57.5819 7.42178C57.4916 7.40802 57.4162 7.40111 57.363 7.39764C57.3363 7.3959 57.3152 7.39501 57.3005 7.39456C57.2931 7.39434 57.2874 7.39423 57.2833 7.39417C57.2813 7.39414 57.2797 7.39412 57.2786 7.39411C57.278 7.39411 57.2775 7.39411 57.2772 7.3941C57.277 7.3941 57.2768 7.3941 57.2767 7.3941C57.2767 7.3941 57.2766 7.3941 57.2766 7.3941C57.2765 7.3941 57.2764 7.3941 57.2764 7.49998C57.2764 7.60587 57.2764 7.60587 57.2764 7.60587C57.2764 7.60587 57.2763 7.60587 57.2763 7.60587C57.2763 7.60587 57.2764 7.60587 57.2764 7.60587C57.2765 7.60587 57.2767 7.60587 57.277 7.60587C57.2776 7.60588 57.2787 7.60589 57.2802 7.60591C57.2832 7.60595 57.2878 7.60604 57.294 7.60623C57.3065 7.60661 57.3251 7.60738 57.3492 7.60895C57.3973 7.61209 57.4666 7.61842 57.55 7.63113C57.7174 7.65664 57.9389 7.70746 58.1589 7.80805C58.3787 7.90855 58.594 8.05724 58.7543 8.27707C58.9138 8.49576 59.0235 8.79116 59.0235 9.1941H59.2353ZM57.2764 10.8882C57.2764 10.9941 57.2765 10.9941 57.2766 10.9941C57.2766 10.9941 57.2767 10.9941 57.2767 10.9941C57.2768 10.9941 57.277 10.9941 57.2772 10.9941C57.2775 10.9941 57.278 10.9941 57.2786 10.9941C57.2797 10.9941 57.2813 10.9941 57.2833 10.994C57.2874 10.994 57.2931 10.9939 57.3005 10.9936C57.3152 10.9932 57.3363 10.9923 57.363 10.9906C57.4162 10.9871 57.4916 10.9802 57.5819 10.9664C57.7619 10.939 58.0037 10.8839 58.2469 10.7728C58.4903 10.6615 58.7383 10.4925 58.9254 10.2359C59.1134 9.97812 59.2353 9.63822 59.2353 9.1941H59.0235C59.0235 9.59704 58.9138 9.89244 58.7543 10.1111C58.594 10.331 58.3787 10.4797 58.1589 10.5802C57.9389 10.6807 57.7174 10.7316 57.55 10.7571C57.4666 10.7698 57.3973 10.7761 57.3492 10.7793C57.3251 10.7808 57.3065 10.7816 57.294 10.782C57.2878 10.7822 57.2832 10.7823 57.2802 10.7823C57.2787 10.7823 57.2776 10.7823 57.277 10.7823C57.2767 10.7823 57.2765 10.7823 57.2764 10.7823C57.2764 10.7823 57.2763 10.7823 57.2763 10.7823C57.2763 10.7823 57.2764 10.7823 57.2764 10.7823C57.2764 10.7823 57.2764 10.7823 57.2764 10.8882ZM54.5235 10.9941H57.2764V10.7823H54.5235V10.9941Z" fill="#B2BBBE"/>
  <path d="M62.5706 5.85889H70.7235V7.76477H64.7411V10.0412H69.5058V11.7883H64.7411V14.3295H70.9353V16.1295H62.5706V5.85889Z" fill="#B2BBBE" stroke="#B2BBBE" stroke-width=".211765"/>
  <path fill-rule="evenodd" clip-rule="evenodd" d="M72.5236 5.91174V16.0764H74.6412V12.2647H76.7059L79.5118 16.0764H82L78.878 12.2379C78.8285 12.177 78.8591 12.083 78.9338 12.0589C79.4975 11.8772 81.3363 11.1154 81.4706 8.87645C81.6294 6.22939 78.5059 5.91174 78.5059 5.91174H72.5236ZM74.4824 10.4647V7.55298H77.8706C77.8706 7.55298 79.4589 7.76474 79.4589 9.00886C79.4589 10.253 77.8706 10.4647 77.8706 10.4647H74.4824Z" fill="#B2BBBE"/>
  <path d="M72.5236 16.0764H72.4177V16.1823H72.5236V16.0764ZM72.5236 5.91174V5.80586H72.4177V5.91174H72.5236ZM74.6412 16.0764V16.1823H74.7471V16.0764H74.6412ZM74.6412 12.2647V12.1588H74.5353V12.2647H74.6412ZM76.7059 12.2647L76.7912 12.2019L76.7594 12.1588H76.7059V12.2647ZM79.5118 16.0764L79.4265 16.1392L79.4583 16.1823H79.5118V16.0764ZM82 16.0764V16.1823H82.2226L82.0822 16.0096L82 16.0764ZM78.878 12.2379L78.7958 12.3047L78.878 12.2379ZM78.9338 12.0589L78.9013 11.9581L78.9338 12.0589ZM81.4706 8.87645L81.3649 8.87011L81.4706 8.87645ZM78.5059 5.91174L78.5167 5.80586H78.5059V5.91174ZM74.4824 7.55298V7.4471H74.3765V7.55298H74.4824ZM74.4824 10.4647H74.3765V10.5706H74.4824V10.4647ZM77.8706 7.55298L77.8847 7.4471H77.8706V7.55298ZM77.8706 10.4647V10.5716L77.8846 10.5697L77.8706 10.4647ZM72.6294 16.0764V5.91174H72.4177V16.0764H72.6294ZM74.6412 15.9706H72.5236V16.1823H74.6412V15.9706ZM74.5353 12.2647V16.0764H74.7471V12.2647H74.5353ZM76.7059 12.1588H74.6412V12.3706H76.7059V12.1588ZM79.5971 16.0137L76.7912 12.2019L76.6206 12.3275L79.4265 16.1392L79.5971 16.0137ZM82 15.9706H79.5118V16.1823H82V15.9706ZM78.7958 12.3047L81.9179 16.1433L82.0822 16.0096L78.9601 12.1711L78.7958 12.3047ZM78.9013 11.9581C78.7601 12.0036 78.6965 12.1825 78.7958 12.3047L78.9601 12.1711C78.9598 12.1707 78.9598 12.1706 78.9598 12.1704C78.9597 12.1699 78.9596 12.1685 78.9603 12.1665C78.9617 12.1622 78.9643 12.1603 78.9662 12.1597L78.9013 11.9581ZM81.3649 8.87011C81.2348 11.0393 79.456 11.7794 78.9013 11.9581L78.9662 12.1597C79.539 11.9751 81.4378 11.1916 81.5763 8.88279L81.3649 8.87011ZM78.5059 5.91174C78.4952 6.01708 78.4952 6.01708 78.4951 6.01708C78.4952 6.01708 78.4952 6.01708 78.4952 6.01708C78.4952 6.01708 78.4953 6.01709 78.4954 6.01711C78.4957 6.01713 78.4961 6.01718 78.4968 6.01725C78.498 6.01739 78.5 6.01761 78.5027 6.01792C78.5081 6.01854 78.5164 6.01954 78.5273 6.02095C78.5491 6.02379 78.5814 6.02833 78.6228 6.03507C78.7056 6.04854 78.8242 6.07076 78.9663 6.10558C79.251 6.17533 79.6273 6.29504 79.9976 6.49465C80.7355 6.8925 81.4411 7.60083 81.3649 8.87011L81.5763 8.88279C81.659 7.505 80.8822 6.73099 80.0981 6.30825C79.7073 6.09756 79.3127 5.97242 79.0167 5.8999C78.8684 5.86357 78.7443 5.84029 78.6568 5.82606C78.6131 5.81893 78.5785 5.81407 78.5546 5.81096C78.5427 5.80941 78.5334 5.80829 78.527 5.80755C78.5238 5.80718 78.5213 5.80691 78.5196 5.80672C78.5187 5.80662 78.518 5.80655 78.5175 5.8065C78.5173 5.80647 78.5171 5.80645 78.5169 5.80644C78.5169 5.80643 78.5168 5.80642 78.5167 5.80642C78.5167 5.80641 78.5166 5.8064 78.5059 5.91174ZM72.5236 6.01763H78.5059V5.80586H72.5236V6.01763ZM74.3765 7.55298V10.4647H74.5883V7.55298H74.3765ZM77.8706 7.4471H74.4824V7.65886H77.8706V7.4471ZM79.5647 9.00886C79.5647 8.33113 79.1285 7.93829 78.714 7.72063C78.5063 7.61161 78.2998 7.54376 78.1458 7.50313C78.0686 7.48276 78.0041 7.46909 77.9586 7.46047C77.9358 7.45616 77.9177 7.4531 77.9051 7.4511C77.8988 7.4501 77.8939 7.44936 77.8905 7.44885C77.8887 7.4486 77.8874 7.44841 77.8864 7.44827C77.8859 7.4482 77.8855 7.44815 77.8852 7.44811C77.8851 7.44809 77.8849 7.44807 77.8848 7.44806C77.8848 7.44805 77.8847 7.44804 77.8847 7.44804C77.8847 7.44803 77.8846 7.44802 77.8706 7.55298C77.8566 7.65793 77.8566 7.65793 77.8566 7.65792C77.8566 7.65792 77.8565 7.65792 77.8565 7.65792C77.8565 7.65792 77.8566 7.65792 77.8566 7.65793C77.8567 7.65794 77.8569 7.65796 77.8571 7.658C77.8577 7.65808 77.8586 7.65821 77.8599 7.6584C77.8624 7.65877 77.8664 7.65937 77.8718 7.66022C77.8825 7.66193 77.8985 7.66463 77.9192 7.66854C77.9605 7.67636 78.0201 7.68896 78.0918 7.70788C78.2356 7.74584 78.4261 7.80868 78.6155 7.90812C78.995 8.10738 79.353 8.44247 79.353 9.00886H79.5647ZM77.8706 10.4647C77.8846 10.5697 77.8847 10.5697 77.8847 10.5697C77.8847 10.5697 77.8848 10.5697 77.8848 10.5697C77.8849 10.5697 77.8851 10.5696 77.8852 10.5696C77.8855 10.5696 77.8859 10.5695 77.8864 10.5695C77.8874 10.5693 77.8887 10.5691 77.8905 10.5689C77.8939 10.5684 77.8988 10.5676 77.9051 10.5666C77.9177 10.5646 77.9358 10.5616 77.9586 10.5572C78.0041 10.5486 78.0686 10.535 78.1458 10.5146C78.2998 10.474 78.5063 10.4061 78.714 10.2971C79.1285 10.0794 79.5647 9.68659 79.5647 9.00886H79.353C79.353 9.57525 78.995 9.91035 78.6155 10.1096C78.4261 10.209 78.2356 10.2719 78.0918 10.3098C78.0201 10.3288 77.9605 10.3414 77.9192 10.3492C77.8985 10.3531 77.8825 10.3558 77.8718 10.3575C77.8664 10.3584 77.8624 10.359 77.8599 10.3593C77.8586 10.3595 77.8577 10.3596 77.8571 10.3597C77.8569 10.3598 77.8567 10.3598 77.8566 10.3598C77.8566 10.3598 77.8565 10.3598 77.8565 10.3598C77.8565 10.3598 77.8566 10.3598 77.8566 10.3598C77.8566 10.3598 77.8566 10.3598 77.8706 10.4647ZM74.4824 10.5706H77.8706V10.3589H74.4824V10.5706Z" fill="#B2BBBE"/>
  <path fill-rule="evenodd" clip-rule="evenodd" d="M30.5941 20.2059H38.0059V21.1059H34.5647V22.1118H37.6353V27.9353H30.9118V22.1118H33.5588V21.1059H30.5941V20.2059ZM31.7588 22.853V24.4941H36.8412V22.853H31.7588ZM31.7588 27.1412V25.1824H36.8412V27.1412H31.7588Z" fill="#B2BBBE"/>
  <path d="M38.0059 20.2059H38.1118V20.1001H38.0059V20.2059ZM30.5941 20.2059V20.1001H30.4882V20.2059H30.5941ZM38.0059 21.1059V21.2118H38.1118V21.1059H38.0059ZM34.5647 21.1059V21.0001H34.4588V21.1059H34.5647ZM34.5647 22.1118H34.4588V22.2177H34.5647V22.1118ZM37.6353 22.1118H37.7412V22.0059H37.6353V22.1118ZM37.6353 27.9353V28.0412H37.7412V27.9353H37.6353ZM30.9118 27.9353H30.8059V28.0412H30.9118V27.9353ZM30.9118 22.1118V22.0059H30.8059V22.1118H30.9118ZM33.5588 22.1118V22.2177H33.6647V22.1118H33.5588ZM33.5588 21.1059H33.6647V21.0001H33.5588V21.1059ZM30.5941 21.1059H30.4882V21.2118H30.5941V21.1059ZM31.7588 24.4941H31.6529V24.6H31.7588V24.4941ZM31.7588 22.853V22.7471H31.6529V22.853H31.7588ZM36.8412 24.4941V24.6H36.9471V24.4941H36.8412ZM36.8412 22.853H36.9471V22.7471H36.8412V22.853ZM31.7588 25.1824V25.0765H31.6529V25.1824H31.7588ZM31.7588 27.1412H31.6529V27.2471H31.7588V27.1412ZM36.8412 25.1824H36.9471V25.0765H36.8412V25.1824ZM36.8412 27.1412V27.2471H36.9471V27.1412H36.8412ZM38.0059 20.1001H30.5941V20.3118H38.0059V20.1001ZM38.1118 21.1059V20.2059H37.9V21.1059H38.1118ZM34.5647 21.2118H38.0059V21.0001H34.5647V21.2118ZM34.6706 22.1118V21.1059H34.4588V22.1118H34.6706ZM37.6353 22.0059H34.5647V22.2177H37.6353V22.0059ZM37.7412 27.9353V22.1118H37.5294V27.9353H37.7412ZM30.9118 28.0412H37.6353V27.8295H30.9118V28.0412ZM30.8059 22.1118V27.9353H31.0176V22.1118H30.8059ZM33.5588 22.0059H30.9118V22.2177H33.5588V22.0059ZM33.4529 21.1059V22.1118H33.6647V21.1059H33.4529ZM30.5941 21.2118H33.5588V21.0001H30.5941V21.2118ZM30.4882 20.2059V21.1059H30.7V20.2059H30.4882ZM31.8647 24.4941V22.853H31.6529V24.4941H31.8647ZM36.8412 24.3883H31.7588V24.6H36.8412V24.3883ZM36.7353 22.853V24.4941H36.9471V22.853H36.7353ZM31.7588 22.9588H36.8412V22.7471H31.7588V22.9588ZM31.6529 25.1824V27.1412H31.8647V25.1824H31.6529ZM36.8412 25.0765H31.7588V25.2882H36.8412V25.0765ZM36.9471 27.1412V25.1824H36.7353V27.1412H36.9471ZM31.7588 27.2471H36.8412V27.0353H31.7588V27.2471ZM37.6353 27.8295H30.9118V28.0412H37.6353V27.8295Z" fill="#B2BBBE"/>
  <path fill-rule="evenodd" clip-rule="evenodd" d="M44.9941 19.8883V20.3118H41.3411V26.8765V27.0883L41.2352 27.406L41.0764 27.5648V27.8824H41.9764L42.1882 27.2471L42.2941 26.7177V22.5883H43.247V23.9118H48.0117V22.4824H48.6999V21.8471H48.0117V21.3707H47.0588V21.8471H44.0941V21.3707H43.247V21.8471H42.2941V21.053H48.8058V20.3118H45.947V19.8883H44.9941ZM44.0941 23.2765V22.4823H47.1117V23.2765H44.0941Z" fill="#B2BBBE"/>
  <path d="M44.9941 20.3118V20.4177H45.0999V20.3118H44.9941ZM44.9941 19.8883V19.7824H44.8882V19.8883H44.9941ZM41.3411 20.3118V20.206H41.2352V20.3118H41.3411ZM41.3411 27.0883L41.4416 27.1218L41.447 27.1055V27.0883H41.3411ZM41.2352 27.406L41.3101 27.4808L41.3278 27.4631L41.3357 27.4394L41.2352 27.406ZM41.0764 27.5648L41.0015 27.4899L40.9705 27.5209V27.5648H41.0764ZM41.0764 27.8824H40.9705V27.9883H41.0764V27.8824ZM41.9764 27.8824V27.9883H42.0527L42.0769 27.9159L41.9764 27.8824ZM42.1882 27.2471L42.2894 27.2809L42.292 27.2679L42.1882 27.2471ZM42.2941 26.7177L42.3979 26.7385L42.3999 26.7282V26.7177H42.2941ZM42.2941 22.5883V22.4824H42.1882V22.5883H42.2941ZM43.247 22.5883H43.3529V22.4824H43.247V22.5883ZM43.247 23.9118H43.1411V24.0177H43.247V23.9118ZM48.0117 23.9118V24.0177H48.1176V23.9118H48.0117ZM48.0117 22.4824V22.3765H47.9058V22.4824H48.0117ZM48.6999 22.4824V22.5883H48.8058V22.4824H48.6999ZM48.6999 21.8471H48.8058V21.7412H48.6999V21.8471ZM48.0117 21.8471H47.9058V21.953H48.0117V21.8471ZM48.0117 21.3707H48.1176V21.2648H48.0117V21.3707ZM47.0588 21.3707V21.2648H46.9529V21.3707H47.0588ZM47.0588 21.8471V21.953H47.1647V21.8471H47.0588ZM44.0941 21.8471H43.9882V21.953H44.0941V21.8471ZM44.0941 21.3707H44.1999V21.2648H44.0941V21.3707ZM43.247 21.3707V21.2648H43.1411V21.3707H43.247ZM43.247 21.8471V21.953H43.3529V21.8471H43.247ZM42.2941 21.8471H42.1882V21.953H42.2941V21.8471ZM42.2941 21.053V20.9471H42.1882V21.053H42.2941ZM48.8058 21.053V21.1589H48.9117V21.053H48.8058ZM48.8058 20.3118H48.9117V20.206H48.8058V20.3118ZM45.947 20.3118H45.8411V20.4177H45.947V20.3118ZM45.947 19.8883H46.0529V19.7824H45.947V19.8883ZM44.0941 22.4823V22.3765H43.9882V22.4823H44.0941ZM44.0941 23.2765H43.9882V23.3823H44.0941V23.2765ZM47.1117 22.4823H47.2176V22.3765H47.1117V22.4823ZM47.1117 23.2765V23.3823H47.2176V23.2765H47.1117ZM45.0999 20.3118V19.8883H44.8882V20.3118H45.0999ZM41.3411 20.4177H44.9941V20.206H41.3411V20.4177ZM41.447 26.8765V20.3118H41.2352V26.8765H41.447ZM41.447 27.0883V26.8765H41.2352V27.0883H41.447ZM41.3357 27.4394L41.4416 27.1218L41.2407 27.0548L41.1348 27.3725L41.3357 27.4394ZM41.1513 27.6396L41.3101 27.4808L41.1604 27.3311L41.0015 27.4899L41.1513 27.6396ZM41.1823 27.8824V27.5648H40.9705V27.8824H41.1823ZM41.9764 27.7765H41.0764V27.9883H41.9764V27.7765ZM42.0877 27.2136L41.876 27.8489L42.0769 27.9159L42.2886 27.2806L42.0877 27.2136ZM42.1902 26.697L42.0844 27.2264L42.292 27.2679L42.3979 26.7385L42.1902 26.697ZM42.1882 22.5883V26.7177H42.3999V22.5883H42.1882ZM43.247 22.4824H42.2941V22.6942H43.247V22.4824ZM43.3529 23.9118V22.5883H43.1411V23.9118H43.3529ZM48.0117 23.806H43.247V24.0177H48.0117V23.806ZM47.9058 22.4824V23.9118H48.1176V22.4824H47.9058ZM48.6999 22.3765H48.0117V22.5883H48.6999V22.3765ZM48.5941 21.8471V22.4824H48.8058V21.8471H48.5941ZM48.0117 21.953H48.6999V21.7412H48.0117V21.953ZM47.9058 21.3707V21.8471H48.1176V21.3707H47.9058ZM47.0588 21.4765H48.0117V21.2648H47.0588V21.4765ZM47.1647 21.8471V21.3707H46.9529V21.8471H47.1647ZM44.0941 21.953H47.0588V21.7412H44.0941V21.953ZM43.9882 21.3707V21.8471H44.1999V21.3707H43.9882ZM43.247 21.4765H44.0941V21.2648H43.247V21.4765ZM43.3529 21.8471V21.3707H43.1411V21.8471H43.3529ZM42.2941 21.953H43.247V21.7412H42.2941V21.953ZM42.1882 21.053V21.8471H42.3999V21.053H42.1882ZM48.8058 20.9471H42.2941V21.1589H48.8058V20.9471ZM48.6999 20.3118V21.053H48.9117V20.3118H48.6999ZM45.947 20.4177H48.8058V20.206H45.947V20.4177ZM45.8411 19.8883V20.3118H46.0529V19.8883H45.8411ZM44.9941 19.9942H45.947V19.7824H44.9941V19.9942ZM43.9882 22.4823V23.2765H44.1999V22.4823H43.9882ZM47.1117 22.3765H44.0941V22.5882H47.1117V22.3765ZM47.2176 23.2765V22.4823H47.0058V23.2765H47.2176ZM44.0941 23.3823H47.1117V23.1706H44.0941V23.3823Z" fill="#B2BBBE"/>
  <path d="M42.9294 24.3882H48.3824V25.1823L46.4235 26.2411L48.7 27.4588V27.7764L48.5941 27.8823H47.8L45.5235 26.7176L43.5118 27.8823H42.5588V27.4588L44.6235 26.3999L42.9294 25.6588V25.3411H44.3588L45.5235 25.9764L47.1118 25.0764H42.9294V24.3882Z" fill="#B2BBBE" stroke="#B2BBBE" stroke-width=".211765"/>
  <path d="M52.9882 20.0471H53.8353V20.7354H54.9471V21.5295H53.8353V23.1177H54.9471V23.8589H54.0471V24.7059H54.9471V25.553H54.0471V27.1412H59.2353V27.8824H53.4118L52.6706 27.0354L52.353 27.8824H51.5588V27.5118L51.6647 27.3001L51.9294 26.5589V24.5471H52.7235V26.0824L53.1471 26.5589V23.8589H51.7706V23.1177H52.8824V21.5295H51.8765V20.7354H52.9882V20.0471Z" fill="#B2BBBE" stroke="#B2BBBE" stroke-width=".211765"/>
  <path d="M55.4764 20.2588H59.1294V22.2706L58.6529 23.2764H57.7529V22.8529L57.9117 22.8L58.1764 22.1647V21H57.2235L56.4823 23.2764H55.6353V23.0117L55.7411 22.8L56.2706 21.2117V21.0529H55.4764V20.2588Z" fill="#B2BBBE" stroke="#B2BBBE" stroke-width=".211765"/>
  <path fill-rule="evenodd" clip-rule="evenodd" d="M59.0764 23.7529H55.4764V26.5059H59.0764V23.7529ZM58.1764 24.5471H56.3235V25.8706H58.1764V24.5471Z" fill="#B2BBBE"/>
  <path d="M55.4764 23.7529V23.647H55.3706V23.7529H55.4764ZM59.0764 23.7529H59.1823V23.647H59.0764V23.7529ZM55.4764 26.5059H55.3706V26.6118H55.4764V26.5059ZM59.0764 26.5059V26.6118H59.1823V26.5059H59.0764ZM56.3235 24.5471V24.4412H56.2176V24.5471H56.3235ZM58.1764 24.5471H58.2823V24.4412H58.1764V24.5471ZM56.3235 25.8706H56.2176V25.9765H56.3235V25.8706ZM58.1764 25.8706V25.9765H58.2823V25.8706H58.1764ZM55.4764 23.8588H59.0764V23.647H55.4764V23.8588ZM55.5823 26.5059V23.7529H55.3706V26.5059H55.5823ZM59.0764 26.4H55.4764V26.6118H59.0764V26.4ZM58.9706 23.7529V26.5059H59.1823V23.7529H58.9706ZM56.3235 24.653H58.1764V24.4412H56.3235V24.653ZM56.4294 25.8706V24.5471H56.2176V25.8706H56.4294ZM58.1764 25.7647H56.3235V25.9765H58.1764V25.7647ZM58.0706 24.5471V25.8706H58.2823V24.5471H58.0706Z" fill="#B2BBBE"/>
  <path d="M63.6824 20.3118H64.5294V20.5235L63.4177 22.5353V22.6412H64.2118L64.8471 21.8471H65.4824L65.6412 21.9529V22.1118L63.7883 25.3941V25.5529H65.1647V26.3471H62.7294V25.3941L63.8941 23.4353H62.3059V22.8C62.3059 22.7576 63.2765 21.0176 63.6824 20.3118Z" fill="#B2BBBE" stroke="#B2BBBE" stroke-width=".211765"/>
  <path d="M62.4647 27.1411H65.1647V27.8823H62.4647V27.1411Z" fill="#B2BBBE" stroke="#B2BBBE" stroke-width=".211765"/>
  <path d="M65.9058 20.2588H70.0882V21.2117L68.9764 22.8529V23.1176H70.3529V24.0176L69.0294 25.8176V25.9235L70.6176 27.6176V27.9353H69.7705L68.6058 26.7176H68.4999L67.6529 27.9353H66.8058V27.4058L67.9176 26.0294V25.9235L67.0705 25.1294V24.6529H67.9705L68.3411 25.1823H68.3941H68.447L69.2941 23.9117V23.8058H67.8647V22.9588L69.0294 21.2117V21.0529H67.0705L66.8588 23.3823L66.5941 25.5L66.3823 27.0353V27.8294V27.9353H65.4823V27.1941L65.8529 24.4411L66.1705 22.2706L66.2235 20.947H65.9058V20.2588Z" fill="#B2BBBE" stroke="#B2BBBE" stroke-width=".211765"/>
  <path d="M73.9 20.3118L73.3706 22.2176V22.4824H74.1647L74.4824 21.6882H75.5941V21.0529H74.5883V20.3118H73.9Z" fill="#B2BBBE" stroke="#B2BBBE" stroke-width=".211765"/>
  <path d="M73.3706 22.8529V23.5941H74.0588V24.8647H73.3706V25.7117H74.0588V27.8823H75.4883L75.753 27.1411H74.9588V25.7117H75.7V24.8647H74.9588V23.5941H75.5941V22.8529H73.3706Z" fill="#B2BBBE" stroke="#B2BBBE" stroke-width=".211765"/>
  <path d="M75.9647 20.4176L76.2824 21.6882H77.1824L76.8946 20.4176H75.9647Z" fill="#B2BBBE" stroke="#B2BBBE" stroke-width=".211765"/>
  <path d="M75.8059 22.1118V22.853H76.4412V26.5589L75.8588 27.7765V27.8824H76.8118L77.0236 27.3001L77.553 27.8824H81.2588V27.1412H78.0294L77.3412 26.453V22.1118H75.8059Z" fill="#B2BBBE" stroke="#B2BBBE" stroke-width=".211765"/>
  <path d="M78.4529 20.2588H79.4059L79.1412 20.947V21.0529H81.2059V21.847H78.9823L78.6118 23.2235V23.5411H79.1941V22.4823H80.2V23.5411H80.9941V24.2294H80.2V24.8647H81.1529V25.6588H80.2V26.8764H79.1941V25.6588H77.6588V24.8647H79.1941V24.2294H77.6588V23.3823L78.1882 21.847H77.6588V21.0529H78.1882L78.4529 20.2588Z" fill="#B2BBBE" stroke="#B2BBBE" stroke-width=".211765"/>
  <path stroke="#B2BBBE" d="M92.5 5.5L92.5 27.5"/>
  <path d="M105.63 26.002C106.884 26.002 107.522 25.364 107.522 24.132V17.642C108.16 17.334 108.798 17.026 109.414 16.696V15.09C108.798 15.442 108.16 15.75 107.522 16.058V11.768H109.744V10.25H107.522V6.092H105.894V10.25H103.232V11.768H105.894V16.74C104.926 17.114 103.958 17.422 102.968 17.664L103.342 19.248C104.2 18.984 105.058 18.676 105.894 18.346V23.714C105.894 24.264 105.608 24.55 105.08 24.55C104.508 24.55 103.936 24.506 103.32 24.462L103.65 26.002H105.63ZM111.46 6.796V14.43H121.052V6.796H111.46ZM119.512 13.132H113V11.24H119.512V13.132ZM113 10.008V8.094H119.512V10.008H113ZM109.92 15.97V17.378H115.486V23.802C115.288 23.736 115.112 23.67 114.958 23.604C114.034 23.186 113.22 22.24 112.516 20.766C112.692 20.018 112.802 19.27 112.846 18.478L111.438 18.324C111.262 20.832 110.338 23.12 108.666 25.144L109.832 26.156C110.778 25.012 111.504 23.758 112.032 22.394C112.692 23.626 113.462 24.462 114.298 24.902C115.354 25.43 117.334 25.716 120.238 25.738C120.942 25.738 121.756 25.76 122.636 25.76L123.076 24.22C122.262 24.286 121.272 24.33 120.128 24.33C118.918 24.33 117.884 24.264 117.004 24.132V21.294H121.602V19.864H117.004V17.378H122.504V15.97H109.92ZM131.964 10.712V12.252H134.802V17.4H131.348V18.918H145.516V17.4H141.974V12.252H144.9V10.712H141.974V6.114H140.368V10.712H136.43V6.114H134.802V10.712H131.964ZM136.43 17.4V12.252H140.368V17.4H136.43ZM141.028 19.732L139.73 20.524C141.468 22.592 142.854 24.462 143.866 26.134L145.274 25.166C144.284 23.626 142.876 21.8 141.028 19.732ZM135.462 19.886C134.362 21.954 133.02 23.714 131.48 25.188L132.844 26.178C134.406 24.594 135.77 22.724 136.914 20.568L135.462 19.886ZM128.048 13.88V26.2H129.676V11.394C130.556 9.876 131.282 8.248 131.854 6.532L130.358 5.85C129.258 9.282 127.52 12.34 125.122 15.024L125.65 16.696C126.53 15.794 127.322 14.848 128.048 13.88ZM150.356 25.958C151.632 25.958 152.27 25.298 152.27 23.978V17.664C153.062 17.29 153.854 16.894 154.646 16.454V14.914C153.876 15.354 153.084 15.75 152.27 16.146V11.592H154.602V10.074H152.27V6.048H150.73V10.074H148.068V11.592H150.73V16.784C149.718 17.158 148.706 17.488 147.65 17.752L148.046 19.314C148.97 19.006 149.85 18.676 150.73 18.324V23.582C150.73 24.242 150.422 24.572 149.828 24.572C149.3 24.572 148.75 24.528 148.178 24.462L148.508 25.958H150.356ZM155.394 9.216V10.734H160.674V14.32H155.812V15.816H156.978C157.594 18.082 158.804 20.106 160.652 21.91C159.046 23.164 157.066 24.176 154.734 24.946L155.482 26.266C157.946 25.386 160.036 24.264 161.752 22.9C163.248 24.132 165.118 25.254 167.318 26.222L168.154 24.902C166.064 24.044 164.282 23.054 162.83 21.932C164.612 20.216 165.888 18.148 166.658 15.728V14.32H162.214V10.734H167.516V9.216H162.214V6.092H160.674V9.216H155.394ZM158.452 15.816H165.074C164.348 17.796 163.226 19.512 161.708 20.986C160.124 19.468 159.024 17.752 158.452 15.816ZM170.992 11.24V12.758H177.944C176.382 16.762 173.808 20.04 170.244 22.592L171.102 24C175.018 21.096 177.812 17.334 179.44 12.758H179.528V26.156H181.112V12.758H181.2C182.696 16.85 185.38 20.568 189.252 23.868L190.308 22.526C186.678 19.666 184.148 16.41 182.696 12.758H189.67V11.24H181.112V5.982H179.528V11.24H170.992ZM184.654 6.026L183.422 6.796C184.698 8.138 185.688 9.37 186.436 10.492L187.69 9.59C186.986 8.578 185.974 7.39 184.654 6.026ZM201.902 6.026V8.908H193.344V10.448H201.902V13.814H195.016V15.288H196.71C197.062 16.476 197.634 17.598 198.426 18.61C199.284 19.71 200.296 20.7 201.44 21.558C199.064 22.966 196.204 24.066 192.86 24.858L193.762 26.266C197.26 25.32 200.252 24.066 202.76 22.482C203.86 23.186 205.092 23.824 206.434 24.396C208.128 25.1 209.932 25.716 211.824 26.222L212.748 24.836C210.966 24.396 209.294 23.89 207.732 23.296C206.412 22.768 205.202 22.174 204.102 21.558C206.434 19.798 208.216 17.686 209.448 15.222V13.814H203.53V10.448H212.176V8.908H203.53V6.026H201.902ZM202.738 20.7C201.77 20.04 200.89 19.27 200.12 18.39C199.284 17.488 198.668 16.454 198.272 15.288H207.666C206.522 17.4 204.872 19.204 202.738 20.7ZM228.038 6.092V8.38H223.726V9.81H228.038V12.384H222.934V13.88H234.946V12.384H229.6V9.81H234.11V8.38H229.6V6.092H228.038ZM222.582 16.696V18.17H230.678V23.692C230.678 24.286 230.37 24.594 229.754 24.594C228.896 24.594 227.994 24.55 227.048 24.506L227.4 26.046H230.326C231.602 26.046 232.262 25.386 232.262 24.088V18.17H234.968V16.696H232.262V15.002H230.678V16.696H222.582ZM217.874 26.002C219.128 26.002 219.766 25.342 219.766 24.022V17.774C220.558 17.444 221.328 17.092 222.076 16.696V15.068C221.328 15.464 220.558 15.838 219.766 16.19V11.768H222.054V10.25H219.766V6.312H218.204V10.25H215.498V11.768H218.204V16.806C217.236 17.158 216.268 17.444 215.256 17.686L215.652 19.27C216.488 19.006 217.346 18.72 218.204 18.412V23.626C218.204 24.264 217.896 24.594 217.324 24.594C216.774 24.594 216.202 24.55 215.608 24.484L215.938 26.002H217.874ZM224.87 19.204L223.594 19.974C224.716 21.316 225.596 22.526 226.256 23.626L227.51 22.746C226.894 21.734 226.014 20.546 224.87 19.204Z" fill="#B2BBBE"/>
</svg>
