<svg xmlns="http://www.w3.org/2000/svg" fill="none" viewBox="0 0 345 291" class="design-iconfont">
  <g clip-path="url(#xo1031oh2__clip0_1113_674)">
    <g opacity=".25" stroke-linecap="round">
      <path d="M567.297 32.8194C539.265 144.37 458.846 258.842 338.344 244.765C217.843 230.688 144.53 144.37 109.391 32.8194C74.2521 -78.7309 217.843 -116.553 338.344 -179.126C458.846 -241.699 595.33 -78.7309 567.297 32.8194Z" stroke="url(#xo1031oh2__paint0_linear_1113_674)"/>
      <path d="M562.527 26.6093C540.312 132.931 459.159 239.776 344.306 228.62C229.453 217.464 153.932 132.931 126.085 26.6093C98.2382 -79.712 229.453 -125.813 344.306 -175.401C459.159 -224.989 584.742 -79.712 562.527 26.6093Z" stroke="url(#xo1031oh2__paint1_linear_1113_674)"/>
      <path d="M554.776 23.5053C535.641 124.598 456.492 225.19 347.288 215.581C238.083 205.972 163.785 124.598 139.799 23.5053C115.813 -77.5871 238.083 -125.857 347.288 -168.57C456.492 -211.283 573.912 -77.5871 554.776 23.5053Z" stroke="url(#xo1031oh2__paint2_linear_1113_674)"/>
      <path d="M545.833 21.6424C528.645 117.506 452.632 212.414 349.076 203.783C245.52 195.152 173.865 117.506 152.32 21.6424C130.774 -74.2211 245.52 -122.132 349.076 -160.498C452.632 -198.865 563.021 -74.2211 545.833 21.6424Z" stroke="url(#xo1031oh2__paint3_linear_1113_674)"/>
      <path d="M536.293 20.4008C520.467 111.035 448.176 200.554 350.269 192.606C252.361 184.659 184.083 111.035 164.244 20.4008C144.406 -70.2337 252.361 -116.478 350.269 -151.805C448.176 -187.132 552.12 -70.2337 536.293 20.4008Z" stroke="url(#xo1031oh2__paint4_linear_1113_674)"/>
      <path d="M526.413 19.5133C511.603 104.919 443.38 189.221 351.12 181.784C258.861 174.347 194.393 104.919 175.828 19.5133C157.264 -65.8924 258.861 -109.699 351.12 -142.757C443.38 -175.816 541.223 -65.8924 526.413 19.5133Z" stroke="url(#xo1031oh2__paint5_linear_1113_674)"/>
      <path d="M516.319 18.8483C502.303 99.025 438.37 178.223 351.759 171.184C265.149 164.146 204.769 99.025 187.199 18.8483C169.63 -61.3284 265.149 -102.201 351.759 -133.487C438.37 -164.774 530.335 -61.3284 516.319 18.8483Z" stroke="url(#xo1031oh2__paint6_linear_1113_674)"/>
      <path d="M506.084 18.3312C492.709 93.279 433.218 167.448 352.256 160.732C271.294 154.015 215.194 93.279 198.428 18.3312C181.662 -56.6166 271.294 -94.2146 352.256 -124.07C433.218 -153.925 519.459 -56.6166 506.084 18.3312Z" stroke="url(#xo1031oh2__paint7_linear_1113_674)"/>
      <path d="M495.749 17.9168C482.906 87.6357 427.967 156.832 352.654 150.383C277.34 143.933 225.657 87.6357 209.558 17.9168C193.459 -51.8021 277.34 -85.8807 352.654 -114.549C427.967 -143.217 508.593 -51.8021 495.749 17.9168Z" stroke="url(#xo1031oh2__paint8_linear_1113_674)"/>
      <path d="M485.342 17.5781C472.949 82.0681 422.644 146.333 352.979 140.109C283.314 133.885 236.151 82.0681 220.615 17.5781C205.08 -46.9119 283.314 -77.2883 352.979 -104.953C422.644 -132.617 497.736 -46.9119 485.342 17.5781Z" stroke="url(#xo1031oh2__paint9_linear_1113_674)"/>
      <path d="M474.881 17.296C462.875 76.5571 417.266 135.921 353.25 129.892C289.233 123.863 246.669 76.5571 231.619 17.296C216.568 -41.965 289.233 -68.4988 353.25 -95.3C417.266 -122.101 486.888 -41.965 474.881 17.296Z" stroke="url(#xo1031oh2__paint10_linear_1113_674)"/>
      <path d="M464.378 17.0571C452.709 71.0892 411.847 125.578 353.479 119.718C295.111 113.858 257.208 71.0892 242.58 17.0571C227.952 -36.975 295.111 -59.5554 353.479 -85.604C411.847 -111.653 476.048 -36.975 464.378 17.0571Z" stroke="url(#xo1031oh2__paint11_linear_1113_674)"/>
      <path d="M453.843 16.8524C442.47 65.6557 406.395 115.289 353.676 109.579C300.956 103.868 267.764 65.6557 253.509 16.8524C239.253 -31.9508 300.956 -50.4887 353.676 -75.8737C406.395 -101.259 465.215 -31.9508 453.843 16.8524Z" stroke="url(#xo1031oh2__paint12_linear_1113_674)"/>
      <path d="M443.281 16.6751C432.173 60.2494 400.917 105.044 353.846 99.4663C306.775 93.8884 278.335 60.2494 264.411 16.6751C250.488 -26.8992 306.775 -41.322 353.846 -66.116C400.917 -90.9101 454.389 -26.8992 443.281 16.6751Z" stroke="url(#xo1031oh2__paint13_linear_1113_674)"/>
      <path d="M432.698 16.5194C421.828 54.8648 395.418 94.8342 353.995 89.3757C312.573 83.9171 288.918 54.8648 275.293 16.5194C261.667 -21.8259 312.573 -32.0733 353.995 -56.3368C395.418 -80.6003 443.568 -21.8259 432.698 16.5194Z" stroke="url(#xo1031oh2__paint14_linear_1113_674)"/>
      <path d="M422.097 16.3826C411.442 49.4991 389.901 84.6545 354.127 79.3039C318.353 73.9533 299.512 49.4991 286.156 16.3826C272.8 -16.7338 318.353 -22.755 354.127 -46.5387C389.901 -70.3224 432.752 -16.7338 422.097 16.3826Z" stroke="url(#xo1031oh2__paint15_linear_1113_674)"/>
      <path d="M411.482 16.2613C401.023 44.1488 384.369 74.5 354.244 69.2476C324.118 63.9953 310.116 44.1488 297.005 16.2613C283.894 -11.6263 324.118 -13.3781 354.244 -36.7251C384.369 -60.0721 421.941 -11.6263 411.482 16.2613Z" stroke="url(#xo1031oh2__paint16_linear_1113_674)"/>
      <path d="M400.854 16.152C390.574 38.8106 378.825 64.3658 354.348 59.2034C329.871 54.0409 320.729 38.8106 307.842 16.152C294.956 -6.50669 329.871 -3.95223 354.348 -26.8995C378.825 -49.8467 411.135 -6.50669 400.854 16.152Z" stroke="url(#xo1031oh2__paint17_linear_1113_674)"/>
      <path d="M390.216 16.0541C380.101 33.4838 373.27 54.2503 354.442 49.1706C335.614 44.0909 331.348 33.4838 318.668 16.0541C305.988 -1.3756 335.614 5.51713 354.442 -17.0624C373.27 -39.6418 400.332 -1.3756 390.216 16.0541Z" stroke="url(#xo1031oh2__paint18_linear_1113_674)"/>
      <path d="M379.569 15.9653C369.606 28.1661 367.707 44.1501 354.527 39.1468C341.348 34.1435 341.975 28.1661 329.486 15.9653C316.997 3.76447 341.348 15.0234 354.527 -7.21625C367.707 -29.4559 389.532 3.76447 379.569 15.9653Z" stroke="url(#xo1031oh2__paint19_linear_1113_674)"/>
    </g>
    <g filter="url(#xo1031oh2__filter0_f_1113_674)">
      <path fill="#9752FF" d="M148 127A3 3 0 1 0 148 133A3 3 0 1 0 148 127Z"/>
    </g>
    <g filter="url(#xo1031oh2__filter1_f_1113_674)">
      <path fill="#9752FF" d="M333 70A3 3 0 1 0 333 76A3 3 0 1 0 333 70Z"/>
    </g>
    <g filter="url(#xo1031oh2__filter2_f_1113_674)">
      <path fill="#0098C8" d="M202 47A2 2 0 1 0 202 51A2 2 0 1 0 202 47Z"/>
    </g>
  </g>
  <path fill="#000" d="M168.5 229.625A44.5 13.35 0 1 0 168.5 256.325A44.5 13.35 0 1 0 168.5 229.625Z"/>
  <path fill="url(#xo1031oh2__paint20_linear_1113_674)" d="M124 187.102H213V243.4511H124z"/>
  <path fill="url(#xo1031oh2__paint21_linear_1113_674)" d="M168.5 174.7415A44.5 12.2375 0 1 0 168.5 199.21650000000002A44.5 12.2375 0 1 0 168.5 174.7415Z"/>
  <path fill="#282828" d="M168.5 174.0005A44.5 12.2375 0 1 0 168.5 198.4755A44.5 12.2375 0 1 0 168.5 174.0005Z"/>
  <path fill="url(#xo1031oh2__paint22_linear_1113_674)" d="M124 194.775H213V256.3176H124z"/>
  <g filter="url(#xo1031oh2__filter3_f_1113_674)">
    <path fill="#000" d="M173 174H182V219H173z"/>
  </g>
  <path fill="#000" d="M264.5 239.746A84.5 25.35 0 1 0 264.5 290.446A84.5 25.35 0 1 0 264.5 239.746Z"/>
  <path fill="url(#xo1031oh2__paint23_linear_1113_674)" d="M180 159H349V266H180z"/>
  <path fill="url(#xo1031oh2__paint24_linear_1113_674)" d="M264.5 135.52949999999998A84.5 23.2375 0 1 0 264.5 182.0045A84.5 23.2375 0 1 0 264.5 135.52949999999998Z"/>
  <path fill="url(#xo1031oh2__paint25_radial_1113_674)" d="M264.5 134.1205A84.5 23.2375 0 1 0 264.5 180.59550000000002A84.5 23.2375 0 1 0 264.5 134.1205Z"/>
  <path fill="url(#xo1031oh2__paint26_linear_1113_674)" d="M180 173.569H349V290.431H180z"/>
  <path d="M263 172.692L206.196 158.536V89.3715L205 89.0726V81.784L263 96.358V172.692Z" fill="url(#xo1031oh2__paint27_linear_1113_674)"/>
  <path opacity=".15" d="M263 103.643L242.662 98.5337L242.655 91.2354L241.259 90.8948L241.252 98.1802L206.196 89.3715V90.4191L241.252 99.2246L241.244 167.973L242.67 167.58L242.662 99.5781L263 104.688V103.643Z" fill="#000"/>
  <path d="M263 172.692L319.494 158.536V89.4486L321 89.0726V81.784L263 96.358V172.692Z" fill="url(#xo1031oh2__paint28_linear_1113_674)"/>
  <path opacity=".1" d="M319.494 89.4486L284.748 98.1802L284.741 90.8948L283.345 91.2354V98.5337L263 103.643V104.688L283.338 99.5813L283.33 167.58L284.756 167.973L284.748 99.2311L319.494 90.5091V89.4486Z" fill="#000"/>
  <g filter="url(#xo1031oh2__filter4_i_1113_674)">
    <path d="M321 81.7839L263 67.2131L205 81.7839L263 96.358L321 81.7839Z" fill="url(#xo1031oh2__paint29_radial_1113_674)"/>
  </g>
  <path d="M299.252 87.241V164.308L284.756 167.952L284.741 90.8974L299.252 87.241Z" fill="#263238"/>
  <path d="M284.756 167.952L283.33 167.583L284.756 167.226V167.952Z" fill="#263238"/>
  <path d="M226.748 87.2417V164.308L241.244 167.952L241.204 90.8975L226.748 87.2417Z" fill="#4B5D66"/>
  <path d="M241.244 167.952L242.67 167.583L241.244 167.226V167.952Z" fill="#000"/>
  <path d="M241.066 90.8974L263.007 83.6188L271.374 81.4579L299.573 75.7975L284.948 72.0217L263.007 79.3003L254.648 81.4612L226.427 87.1216L241.066 90.8974Z" fill="#455A64"/>
  <path d="M284.934 90.8974L259.349 82.4035L226.427 75.7975L241.059 72.0217L266.665 80.5156L299.573 87.1216L284.934 90.8974Z" fill="#455A64"/>
  <path d="M258.963 78.2332C258.963 78.2332 242.239 89.0936 214.932 86.6209C214.932 86.6209 226.53 92.5587 240.709 91.2146C240.709 91.2146 238.672 95.2639 226.726 100.192C226.726 100.192 256.57 100.408 264.283 81.0234L258.963 78.2332Z" fill="#37474F"/>
  <path d="M243.236 97.8395C251.51 95.3937 260.539 90.5707 264.283 81.0447L258.956 78.2332C255.719 80.1652 252.18 81.7613 248.426 82.9819C248.426 82.9819 254.232 84.982 260.154 83.7476C258.812 86.9266 256.601 89.8355 253.679 92.27C250.756 94.7045 247.192 96.6055 243.236 97.8395Z" fill="#263238"/>
  <path d="M222.427 63.8282C222.427 63.8282 225.738 60.6919 235.895 62.1079C242.025 62.9681 252.435 68.7491 257.582 78.3802C258.233 79.5973 259.693 80.0069 260.474 80.826C260.655 81.0095 260.853 81.1816 261.067 81.3409L264.283 81.3702C264.283 72.371 258.045 63.2899 252.146 58.0355C246.247 52.781 236.531 50.2124 229.606 50.0134C227.15 49.9216 224.702 50.3026 222.464 51.1251C220.577 55.379 219.796 59.5977 222.427 63.8282Z" fill="url(#xo1031oh2__paint30_linear_1113_674)"/>
  <path d="M256.3 77.1492C256.3 77.1492 262.549 75.5641 259.979 68.0379C262.676 72.1969 264.144 76.7449 264.283 81.3702L260.807 81.3408C260.577 81.181 260.363 81.0083 260.167 80.8242C259.323 80.0023 257.745 79.5914 257.042 78.3703C256.816 77.9476 256.558 77.5484 256.3 77.1492Z" fill="#263238"/>
  <path d="M227.948 69.0776C225.512 67.5143 223.497 65.572 222.023 63.3678C219.386 59.181 220.166 55.0058 222.023 50.7843C216.069 52.8921 212.514 59.0942 211.185 64.1033C210.462 66.9061 210.376 69.3151 210.968 70.4732C212.637 73.6235 222.413 86.3518 264.283 80.7463L264.24 77.2196C253.756 76.6984 235.447 74.1389 227.948 69.0776Z" fill="url(#xo1031oh2__paint31_linear_1113_674)"/>
  <path d="M222.397 63.3323C222.397 63.3323 221.907 53.7758 229.447 50.0129C227.035 49.9244 224.631 50.2917 222.433 51.0848C220.58 55.1861 219.813 59.2536 222.397 63.3323Z" fill="#263238"/>
  <path d="M268.153 78.2332C268.153 78.2332 284.877 89.0936 312.184 86.6209C312.184 86.6209 300.585 92.5587 286.406 91.2146C286.406 91.2146 288.443 95.2639 300.39 100.192C300.39 100.192 270.545 100.408 262.832 81.0234L268.153 78.2332Z" fill="#37474F"/>
  <path d="M267.006 83.7003C272.921 84.9252 278.777 82.9403 278.777 82.9403L277.677 82.5547L277.51 82.4979L276.534 82.1407L276.315 82.0613L275.426 81.7153C275.351 81.6885 275.278 81.6582 275.208 81.6246C274.924 81.5168 274.654 81.4034 274.385 81.2956L274.166 81.2049L273.438 80.8816L273.227 80.7909L272.542 80.4847L272.352 80.3996L271.711 80.116L271.537 80.0366L270.983 79.7644L270.823 79.685L270.335 79.4355L270.189 79.3617L269.767 79.1406L269.643 79.0725L269.286 78.8797L269.177 78.8173L268.892 78.6585L268.798 78.6018L268.587 78.477L268.492 78.4203L268.361 78.3466L268.273 78.2956L268.23 78.2615L268.179 78.2332L266.43 79.1462L262.832 81.0234C270.575 100.408 300.564 100.192 300.572 100.192C285.144 99.6251 268.936 90.5114 267.006 83.7003Z" fill="#263238"/>
  <path d="M305.4 63.8282C305.4 63.8282 302.09 60.6919 291.936 62.1079C285.808 62.9681 275.402 68.7491 270.257 78.3802C269.606 79.5973 268.147 80.0069 267.366 80.826C267.185 81.0095 266.987 81.1816 266.774 81.3409L263.558 81.3702C263.558 72.371 269.794 63.2899 275.691 58.0355C281.588 52.781 291.301 50.2124 298.224 50.0134C300.679 49.9216 303.126 50.3026 305.363 51.1251C307.25 55.379 308.066 59.5977 305.4 63.8282Z" fill="url(#xo1031oh2__paint32_linear_1113_674)"/>
  <path d="M270.815 77.1492C270.815 77.1492 265.134 75.5641 267.471 68.0379C265.019 72.1969 263.684 76.7449 263.558 81.3702L266.718 81.3408C266.927 81.181 267.122 81.0083 267.3 80.8242C268.067 80.0023 269.502 79.5914 270.141 78.3703C270.347 77.9476 270.581 77.5484 270.815 77.1492Z" fill="#263238"/>
  <path d="M299.168 69.0776C301.603 67.5143 303.619 65.572 305.093 63.3678C307.73 59.181 306.949 55.0058 305.093 50.7843C311.046 52.8921 314.601 59.0942 315.93 64.1033C316.653 66.9061 316.74 69.3151 316.147 70.4732C314.478 73.6235 304.702 86.3518 262.832 80.7463L262.875 77.2196C273.359 76.6984 291.668 74.1389 299.168 69.0776Z" fill="url(#xo1031oh2__paint33_linear_1113_674)"/>
  <path d="M305.432 63.3323C305.432 63.3323 305.921 53.7758 298.394 50.0129C300.802 49.9244 303.202 50.2917 305.397 51.0848C307.247 55.1861 308.048 59.2536 305.432 63.3323Z" fill="#263238"/>
  <path d="M269.292 78.6416C269.247 78.3177 269.09 78.009 268.838 77.7469C268.586 77.4848 268.248 77.2788 267.858 77.15C266.477 76.7781 265.015 76.6173 263.553 76.6767C262.051 76.6173 260.549 76.805 259.149 77.2271C258.79 77.3595 258.482 77.5609 258.254 77.8116C258.027 78.0623 257.888 78.3539 257.85 78.6581C257.7 79.6598 257.606 81.355 258.467 82.3181C259.885 83.2501 261.701 83.7497 263.568 83.7216C265.427 83.7525 267.234 83.2523 268.64 82.3181C269.493 81.3384 269.407 79.6433 269.292 78.6416Z" fill="#455A64"/>
  <path d="M15.792 57.72H19.344C19.248 60.96 18.744 63.792 17.808 66.216C16.848 64.2 16.08 61.776 15.48 58.968L15.792 57.72ZM17.016 67.944C15.912 69.984 14.448 71.64 12.576 72.936L13.464 74.376C15.264 73.08 16.752 71.472 17.904 69.552C19.104 71.568 20.544 73.2 22.224 74.4L23.16 72.984C21.432 71.808 19.968 70.152 18.72 67.992C20.064 65.16 20.808 61.728 20.928 57.72H22.488V56.064H16.152C16.344 55.008 16.536 53.856 16.68 52.632L15 52.344C14.52 56.904 13.56 60.528 12.144 63.216L13.224 64.536C13.728 63.672 14.208 62.688 14.64 61.584C15.288 63.984 16.08 66.096 17.016 67.944ZM5.64 63.552C5.472 64.032 5.28 64.536 5.064 65.064H1.56V66.576H4.392C3.912 67.536 3.36 68.52 2.736 69.576C3.912 70.008 5.016 70.464 6.072 70.92C4.68 71.712 2.976 72.36 1.008 72.888L1.824 74.328C4.224 73.656 6.216 72.768 7.8 71.664C9.216 72.288 10.44 72.936 11.496 73.56L12.432 72.216C11.376 71.64 10.272 71.112 9.12 70.584C10.368 69.432 11.256 68.064 11.784 66.48V65.064H6.768C6.912 64.632 7.08 64.2 7.248 63.744L5.64 63.552ZM7.536 69.912C6.672 69.552 5.76 69.216 4.8 68.88C5.28 68.16 5.712 67.392 6.096 66.576H10.224C9.648 67.824 8.736 68.952 7.536 69.912ZM3.456 52.848L2.088 53.304C2.664 54.216 3.192 55.248 3.696 56.424L4.944 55.848C4.512 54.792 4.032 53.784 3.456 52.848ZM10.752 52.776C10.32 53.784 9.696 54.792 8.928 55.824L10.152 56.448C10.92 55.44 11.52 54.408 12 53.352L10.752 52.776ZM1.608 57V58.512H5.016C4.296 59.832 3 61.032 1.152 62.112L1.992 63.504C4.056 62.112 5.496 60.48 6.288 58.584V63.144H7.896V60.024C8.76 60.6 9.792 61.368 10.992 62.328L11.88 60.984C10.536 60.168 9.192 59.424 7.896 58.776V58.512H12.264V57H7.896V52.416H6.288V57H1.608ZM46.176 54.864H37.128C36.816 53.88 36.48 52.992 36.144 52.2L34.176 52.536C34.56 53.232 34.92 54 35.256 54.864H25.824V60.216H27.552V56.52H44.448V60.216H46.176V54.864ZM29.52 59.112V60.72H39.816C38.832 61.344 37.368 62.184 35.424 63.192V65.544H25.392V67.224H35.424V71.712C35.424 72.408 35.112 72.768 34.488 72.768C33.48 72.768 32.568 72.744 31.728 72.72L32.136 74.304H35.088C36.48 74.304 37.176 73.632 37.176 72.312V67.224H46.632V65.544H37.176V63.936C39.096 62.88 40.848 61.824 42.408 60.72V59.112H29.52ZM49.56 53.928V55.44H55.152V57.096H56.928V55.44H63.096V57.12H64.584V58.104H53.76V61.32H51.576V57.288H50.088V62.76H53.76V65.184H49.104V66.624H50.472C50.376 69.432 49.848 71.352 48.888 72.408L50.088 73.344C51.144 72.072 51.744 69.84 51.84 66.624H53.76V66.888C53.712 69.624 53.28 71.736 52.416 73.272L53.664 74.4C54.72 72.504 55.272 70.008 55.32 66.888V59.568H64.608C64.704 62.688 64.944 65.232 65.328 67.2C65.472 68.016 65.664 68.76 65.88 69.456C65.208 70.584 64.416 71.52 63.504 72.288V71.304H61.392V69.024H63.48V64.464H61.392V62.376H63.504V60.984H56.664V72.696H62.952L62.544 72.96L63.36 74.256C64.56 73.536 65.616 72.552 66.528 71.304C66.72 71.784 66.912 72.192 67.152 72.576C67.872 73.728 68.568 74.328 69.192 74.328C69.96 74.328 70.56 72.84 70.968 69.864L69.72 69.168C69.48 71.328 69.192 72.408 68.904 72.432C68.664 72.432 68.304 71.952 67.872 71.04C67.704 70.704 67.56 70.296 67.416 69.816C68.544 67.656 69.288 64.896 69.672 61.488L68.208 61.176C67.968 63.552 67.512 65.616 66.84 67.392C66.792 67.152 66.744 66.888 66.696 66.6C66.408 64.968 66.216 62.616 66.12 59.568H70.632V58.104H69.432C69.192 57.336 68.928 56.664 68.688 56.064L67.224 56.304C67.512 56.856 67.776 57.456 68.016 58.104H66.096V56.76H64.872V55.44H70.464V53.928H64.872V52.416H63.096V53.928H56.928V52.392H55.152V53.928H49.56ZM60.024 62.376V64.464H58.08V62.376H60.024ZM58.08 65.736H62.136V67.728H58.08V65.736ZM58.08 69.024H60.024V71.304H58.08V69.024ZM77.376 53.4V61.248H90.6V53.4H77.376ZM88.872 59.616H79.104V55.032H88.872V59.616ZM82.632 63.624H74.184V74.04H75.888V72.816H80.952V74.04H82.632V63.624ZM75.888 71.184V65.28H80.952V71.184H75.888ZM93.792 63.624H85.104V74.04H86.808V72.816H92.064V74.04H93.792V63.624ZM86.808 71.184V65.28H92.064V71.184H86.808Z" fill="#FFFEFA"/>
  <path d="M10.344 91.04H1.632V106.424H3.888V93.344H8.136V106.424H10.344V98.312L11.424 99.728C12.336 98.6 13.128 97.328 13.8 95.912H19.92C19.896 103.016 19.824 107.144 19.704 108.32C19.56 109.472 19.128 110.072 18.36 110.072C17.304 110.072 16.056 110.024 14.616 109.952L15.216 112.184C16.896 112.256 18.048 112.304 18.72 112.304C20.688 112.304 21.792 111.296 22.032 109.328C22.248 107.312 22.368 102.032 22.368 93.488H14.736C15.024 92.552 15.288 91.568 15.48 90.536L13.056 90.224C12.552 92.912 11.64 95.216 10.344 97.16V91.04ZM17.544 100.904L15.648 101.816C15.936 102.632 16.248 103.52 16.536 104.456C15.576 104.672 14.616 104.84 13.608 104.96C14.52 103.112 15.408 100.904 16.272 98.336L13.992 97.544C12.624 102.392 11.592 104.912 10.872 105.152L11.28 107.336C13.392 107.12 15.336 106.832 17.112 106.448C17.256 106.976 17.4 107.504 17.544 108.08L19.584 107.048C18.912 104.816 18.24 102.776 17.544 100.904ZM4.944 94.76V102.632C4.872 104.648 4.584 106.28 4.056 107.552C3.528 108.704 2.472 109.688 0.936 110.48L2.256 112.568C3.888 111.752 5.064 110.6 5.784 109.088C6.528 107.48 6.936 105.32 7.008 102.632V94.76H4.944ZM8.064 106.976L6.456 108.536C7.8 109.904 8.832 111.176 9.552 112.376L11.352 110.576C10.44 109.4 9.36 108.2 8.064 106.976ZM27.888 97.736L26.712 99.464C28.392 100.136 30 101.072 31.56 102.272L32.856 100.304C31.368 99.296 29.712 98.456 27.888 97.736ZM30.048 94.472L28.872 96.224C30.6 96.872 32.256 97.76 33.888 98.912L35.184 96.944C33.624 95.984 31.92 95.168 30.048 94.472ZM36.144 94.856V99.92C36.072 101 35.904 102.008 35.616 102.944H25.608V105.392H34.512C34.296 105.728 34.056 106.064 33.816 106.376C32.424 107.912 29.712 109.208 25.704 110.216L27.12 112.424C31.056 111.416 33.912 109.952 35.664 108.08L35.712 108.032C38.76 109.376 41.712 110.912 44.592 112.664L46.344 110.744C43.512 109.112 40.392 107.576 36.984 106.184C37.128 105.92 37.248 105.656 37.392 105.392H46.776V102.944H38.208C38.424 102.008 38.568 101 38.616 99.92V94.856H36.144ZM26.448 91.472V93.776H42.504C42.216 94.808 41.832 95.744 41.4 96.56L43.728 97.232C44.28 95.84 44.736 94.424 45.096 93.032V91.472H26.448ZM54.744 93.536V95.36C54.672 102.416 52.728 107.552 48.912 110.768L50.856 112.472C53.88 109.856 55.848 106.136 56.736 101.336C57.744 103.448 59.112 105.344 60.888 107.072C59.016 108.368 56.688 109.448 53.952 110.36L55.416 112.688C58.392 111.728 60.912 110.456 62.976 108.872C64.704 110.216 66.768 111.44 69.168 112.544L70.848 110.312C68.64 109.376 66.672 108.32 64.944 107.12C67.08 104.912 68.496 102.248 69.192 99.08V97.616H64.44C64.872 96.224 65.328 94.592 65.76 92.72V91.088H50.88V93.536H54.744ZM62.856 105.512C59.976 103.016 58.104 100.112 57.24 96.752C57.264 96.296 57.288 95.84 57.288 95.36V93.536H63C62.4 96.32 61.848 98.432 61.32 99.896H66.528C65.832 102.008 64.608 103.88 62.856 105.512ZM77.424 96.992V100.256H75.696C76.248 98.888 76.776 97.328 77.28 95.576H82.152V93.176H77.904C78.096 92.36 78.264 91.52 78.456 90.656L76.08 90.296C75.888 91.304 75.672 92.264 75.48 93.176H72.84V95.576H74.88C74.352 97.472 73.776 99.056 73.152 100.304L73.68 102.512H77.424V105.44C75.984 105.68 74.472 105.872 72.864 106.064L73.2 108.512C74.664 108.32 76.08 108.128 77.424 107.888V112.472H79.848V107.408C80.856 107.192 81.84 106.952 82.8 106.712V104.36C81.864 104.6 80.88 104.816 79.848 105.008V102.512H82.272V100.256H79.848V96.992H77.424ZM83.016 93.176V95.576H86.112C85.968 96.248 85.8 96.944 85.656 97.616H82.344V99.992H85.056C84.624 101.576 84.192 103.112 83.712 104.576H91.656C90.936 105.632 90 106.664 88.824 107.72C87.768 107.144 86.688 106.616 85.584 106.136L84.24 108.128C86.832 109.232 89.328 110.744 91.776 112.64L93.192 110.48C92.448 109.928 91.656 109.4 90.84 108.896C92.376 107.384 93.504 105.896 94.224 104.432V102.368H86.832C87.072 101.624 87.312 100.832 87.552 99.992H95.184V97.616H88.152C88.296 96.968 88.464 96.296 88.632 95.576H94.56V93.176H89.112C89.256 92.312 89.4 91.448 89.568 90.536L87.096 90.296L86.592 93.176H83.016ZM110.472 90.296L107.976 90.728C108.36 91.52 108.696 92.384 109.008 93.32H106.488V102.32H118.416V93.32H115.848C116.232 92.48 116.52 91.568 116.736 90.56L114.336 90.224C114.144 91.304 113.88 92.336 113.52 93.32H111.312C111.048 92.192 110.76 91.184 110.472 90.296ZM116.304 100.232H113.4V95.384H116.304V100.232ZM111.384 100.232H108.6V95.384H111.384V100.232ZM110.28 96.104L108.84 96.56C109.2 97.568 109.488 98.6 109.728 99.704L111.144 99.32C110.88 98.12 110.592 97.04 110.28 96.104ZM114.552 95.984C114.312 97.28 114 98.36 113.616 99.224L115.104 99.776C115.512 98.816 115.848 97.688 116.112 96.416L114.552 95.984ZM117.6 103.28H107.4V112.52H109.752V111.728H115.272V112.52H117.6V103.28ZM109.752 109.712V108.464H115.272V109.712H109.752ZM109.752 106.616V105.296H115.272V106.616H109.752ZM105.696 91.232H97.536V106.448H99.696V93.392H103.536V106.304H105.696V91.232ZM103.416 107.216L101.904 108.68C103.128 109.928 104.064 111.08 104.736 112.184L106.464 110.456C105.624 109.4 104.616 108.32 103.416 107.216ZM100.68 94.616V102.272C100.608 104.408 100.32 106.16 99.792 107.528C99.264 108.776 98.208 109.808 96.672 110.648L97.944 112.664C99.552 111.8 100.704 110.6 101.424 109.04C102.144 107.36 102.528 105.104 102.6 102.272V94.616H100.68ZM130.104 91.04V93.488H135.192C135.12 94.112 135.024 94.712 134.928 95.312H130.728V107.048H133.176V97.616H139.752V107.048H142.2V95.312H137.52C137.616 94.736 137.688 94.112 137.76 93.488H142.776V91.04H130.104ZM135.216 98.696V102.92C135.12 104.792 134.592 106.328 133.656 107.504C132.696 108.584 130.872 109.496 128.184 110.216L129.6 112.472C132.384 111.704 134.376 110.576 135.6 109.136C136.872 107.6 137.568 105.512 137.688 102.92V98.696H135.216ZM127.872 90.272C126.24 92 124.128 93.416 121.536 94.52L122.616 96.824C125.28 95.528 127.536 93.944 129.408 92.024L127.872 90.272ZM128.136 96.776C126.432 98.672 124.248 100.208 121.608 101.384L122.688 103.688C125.424 102.32 127.752 100.592 129.672 98.528L128.136 96.776ZM128.544 103.952C126.672 106.376 124.248 108.344 121.32 109.832L122.472 112.256C125.472 110.528 128.016 108.368 130.128 105.752L128.544 103.952ZM138.792 106.832L137.088 108.464C138.864 109.904 140.232 111.248 141.216 112.472L143.112 110.576C141.936 109.328 140.496 108.08 138.792 106.832ZM166.296 92.576H157.44V111.44H159.864V110.12H163.848V111.44H166.296V92.576ZM159.864 107.792V94.904H163.848V107.792H159.864ZM149.016 95.624H150.624C150.576 97.016 150.504 98.336 150.384 99.536H145.392V101.912H150L149.712 103.184C148.944 105.824 147.336 108.056 144.864 109.904L146.496 111.92C148.92 110.192 150.624 108.104 151.632 105.68C152.592 106.832 153.768 108.44 155.184 110.528L156.72 108.2C155.232 106.424 153.768 104.792 152.328 103.352L152.616 101.912H156.6V99.536H152.952C153.072 98.312 153.144 97.016 153.168 95.624H156.36V93.248H150C150.264 92.48 150.504 91.664 150.744 90.824L148.272 90.272C147.648 92.792 146.544 95.168 145.008 97.424L147.216 98.816C147.888 97.832 148.488 96.776 149.016 95.624Z" fill="url(#xo1031oh2__paint34_linear_1113_674)"/>
  <path opacity=".4" d="M0 148H24" stroke="#B2BBBE" stroke-width="3"/>
  <defs>
    <linearGradient id="xo1031oh2__paint0_linear_1113_674" x1="99.5708" y1="-189.184" x2="578.62" y2="262.707" gradientUnits="userSpaceOnUse">
      <stop stop-color="#E43FFF"/>
      <stop offset="1" stop-color="#0679FF"/>
    </linearGradient>
    <linearGradient id="xo1031oh2__paint1_linear_1113_674" x1="118.102" y1="-181.806" x2="570.925" y2="246.749" gradientUnits="userSpaceOnUse">
      <stop stop-color="#E43FFF"/>
      <stop offset="1" stop-color="#0679FF"/>
    </linearGradient>
    <linearGradient id="xo1031oh2__paint2_linear_1113_674" x1="132.77" y1="-173.328" x2="561.752" y2="233.275" gradientUnits="userSpaceOnUse">
      <stop stop-color="#E43FFF"/>
      <stop offset="1" stop-color="#0679FF"/>
    </linearGradient>
    <linearGradient id="xo1031oh2__paint3_linear_1113_674" x1="145.913" y1="-164.388" x2="551.974" y2="220.782" gradientUnits="userSpaceOnUse">
      <stop stop-color="#E43FFF"/>
      <stop offset="1" stop-color="#0679FF"/>
    </linearGradient>
    <linearGradient id="xo1031oh2__paint4_linear_1113_674" x1="158.299" y1="-155.211" x2="541.893" y2="208.776" gradientUnits="userSpaceOnUse">
      <stop stop-color="#E43FFF"/>
      <stop offset="1" stop-color="#0679FF"/>
    </linearGradient>
    <linearGradient id="xo1031oh2__paint5_linear_1113_674" x1="170.253" y1="-145.902" x2="531.64" y2="197.044" gradientUnits="userSpaceOnUse">
      <stop stop-color="#E43FFF"/>
      <stop offset="1" stop-color="#0679FF"/>
    </linearGradient>
    <linearGradient id="xo1031oh2__paint6_linear_1113_674" x1="181.936" y1="-136.511" x2="521.281" y2="185.484" gradientUnits="userSpaceOnUse">
      <stop stop-color="#E43FFF"/>
      <stop offset="1" stop-color="#0679FF"/>
    </linearGradient>
    <linearGradient id="xo1031oh2__paint7_linear_1113_674" x1="193.436" y1="-127.07" x2="510.855" y2="174.037" gradientUnits="userSpaceOnUse">
      <stop stop-color="#E43FFF"/>
      <stop offset="1" stop-color="#0679FF"/>
    </linearGradient>
    <linearGradient id="xo1031oh2__paint8_linear_1113_674" x1="204.807" y1="-117.6" x2="500.385" y2="162.667" gradientUnits="userSpaceOnUse">
      <stop stop-color="#E43FFF"/>
      <stop offset="1" stop-color="#0679FF"/>
    </linearGradient>
    <linearGradient id="xo1031oh2__paint9_linear_1113_674" x1="216.08" y1="-108.111" x2="489.886" y2="151.354" gradientUnits="userSpaceOnUse">
      <stop stop-color="#E43FFF"/>
      <stop offset="1" stop-color="#0679FF"/>
    </linearGradient>
    <linearGradient id="xo1031oh2__paint10_linear_1113_674" x1="227.277" y1="-98.6152" x2="479.37" y2="140.083" gradientUnits="userSpaceOnUse">
      <stop stop-color="#E43FFF"/>
      <stop offset="1" stop-color="#0679FF"/>
    </linearGradient>
    <linearGradient id="xo1031oh2__paint11_linear_1113_674" x1="238.412" y1="-89.12" x2="468.844" y2="128.844" gradientUnits="userSpaceOnUse">
      <stop stop-color="#E43FFF"/>
      <stop offset="1" stop-color="#0679FF"/>
    </linearGradient>
    <linearGradient id="xo1031oh2__paint12_linear_1113_674" x1="249.493" y1="-79.6326" x2="458.315" y2="117.631" gradientUnits="userSpaceOnUse">
      <stop stop-color="#E43FFF"/>
      <stop offset="1" stop-color="#0679FF"/>
    </linearGradient>
    <linearGradient id="xo1031oh2__paint13_linear_1113_674" x1="260.525" y1="-70.16" x2="447.79" y2="106.439" gradientUnits="userSpaceOnUse">
      <stop stop-color="#E43FFF"/>
      <stop offset="1" stop-color="#0679FF"/>
    </linearGradient>
    <linearGradient id="xo1031oh2__paint14_linear_1113_674" x1="271.51" y1="-60.7106" x2="437.274" y2="95.2668" gradientUnits="userSpaceOnUse">
      <stop stop-color="#E43FFF"/>
      <stop offset="1" stop-color="#0679FF"/>
    </linearGradient>
    <linearGradient id="xo1031oh2__paint15_linear_1113_674" x1="282.446" y1="-51.2921" x2="426.774" y2="84.1146" gradientUnits="userSpaceOnUse">
      <stop stop-color="#E43FFF"/>
      <stop offset="1" stop-color="#0679FF"/>
    </linearGradient>
    <linearGradient id="xo1031oh2__paint16_linear_1113_674" x1="293.328" y1="-41.9161" x2="416.297" y2="72.9855" gradientUnits="userSpaceOnUse">
      <stop stop-color="#E43FFF"/>
      <stop offset="1" stop-color="#0679FF"/>
    </linearGradient>
    <linearGradient id="xo1031oh2__paint17_linear_1113_674" x1="304.146" y1="-32.5983" x2="405.852" y2="61.8865" gradientUnits="userSpaceOnUse">
      <stop stop-color="#E43FFF"/>
      <stop offset="1" stop-color="#0679FF"/>
    </linearGradient>
    <linearGradient id="xo1031oh2__paint18_linear_1113_674" x1="314.879" y1="-23.3579" x2="395.45" y2="50.8355" gradientUnits="userSpaceOnUse">
      <stop stop-color="#E43FFF"/>
      <stop offset="1" stop-color="#0679FF"/>
    </linearGradient>
    <linearGradient id="xo1031oh2__paint19_linear_1113_674" x1="325.494" y1="-14.2263" x2="385.111" y2="39.8663" gradientUnits="userSpaceOnUse">
      <stop stop-color="#E43FFF"/>
      <stop offset="1" stop-color="#0679FF"/>
    </linearGradient>
    <linearGradient id="xo1031oh2__paint20_linear_1113_674" x1="168.5" y1="187.102" x2="168.5" y2="243.451" gradientUnits="userSpaceOnUse">
      <stop stop-color="#232323"/>
      <stop offset="1"/>
    </linearGradient>
    <linearGradient id="xo1031oh2__paint21_linear_1113_674" x1="124" y1="186.979" x2="213" y2="186.979" gradientUnits="userSpaceOnUse">
      <stop stop-color="#373737"/>
      <stop offset=".494792" stop-color="#999"/>
      <stop offset="1" stop-color="#393939"/>
    </linearGradient>
    <linearGradient id="xo1031oh2__paint22_linear_1113_674" x1="168.63" y1="256.317" x2="168.63" y2="194.775" gradientUnits="userSpaceOnUse">
      <stop stop-color="#131824"/>
      <stop offset=".283687" stop-color="#131824"/>
      <stop offset="1" stop-color="#131824" stop-opacity="0"/>
    </linearGradient>
    <linearGradient id="xo1031oh2__paint23_linear_1113_674" x1="264.5" y1="159" x2="264.5" y2="266" gradientUnits="userSpaceOnUse">
      <stop stop-color="#232323"/>
      <stop offset="1"/>
    </linearGradient>
    <linearGradient id="xo1031oh2__paint24_linear_1113_674" x1="180" y1="158.767" x2="349" y2="158.767" gradientUnits="userSpaceOnUse">
      <stop stop-color="#373737"/>
      <stop offset=".494792" stop-color="#999"/>
      <stop offset="1" stop-color="#393939"/>
    </linearGradient>
    <linearGradient id="xo1031oh2__paint26_linear_1113_674" x1="264.746" y1="290.431" x2="264.746" y2="173.569" gradientUnits="userSpaceOnUse">
      <stop stop-color="#131824"/>
      <stop offset=".406025" stop-color="#131824"/>
      <stop offset="1" stop-color="#131824" stop-opacity="0"/>
    </linearGradient>
    <linearGradient id="xo1031oh2__paint27_linear_1113_674" x1="206" y1="126" x2="263" y2="126" gradientUnits="userSpaceOnUse">
      <stop stop-color="#827F7F"/>
      <stop offset=".330424" stop-color="#918F8F"/>
      <stop offset=".649789" stop-color="#9D9D9D"/>
      <stop offset="1" stop-color="#818181"/>
    </linearGradient>
    <linearGradient id="xo1031oh2__paint28_linear_1113_674" x1="262" y1="137" x2="321" y2="137" gradientUnits="userSpaceOnUse">
      <stop stop-color="#6B6B6B"/>
      <stop offset="1" stop-color="#424242"/>
    </linearGradient>
    <linearGradient id="xo1031oh2__paint30_linear_1113_674" x1="223.5" y1="52.5" x2="266" y2="71.5" gradientUnits="userSpaceOnUse">
      <stop stop-color="#37474F"/>
      <stop offset=".494792" stop-color="#516874"/>
      <stop offset="1" stop-color="#37474F"/>
    </linearGradient>
    <linearGradient id="xo1031oh2__paint31_linear_1113_674" x1="207" y1="61.5" x2="256" y2="78.5" gradientUnits="userSpaceOnUse">
      <stop offset=".25887" stop-color="#37474F"/>
      <stop offset=".560988" stop-color="#4D6875"/>
      <stop offset=".842518" stop-color="#37474F"/>
    </linearGradient>
    <linearGradient id="xo1031oh2__paint32_linear_1113_674" x1="267.5" y1="69.5" x2="302" y2="51.5" gradientUnits="userSpaceOnUse">
      <stop stop-color="#37474F"/>
      <stop offset=".546875" stop-color="#4F6A77"/>
      <stop offset="1" stop-color="#37474F"/>
    </linearGradient>
    <linearGradient id="xo1031oh2__paint33_linear_1113_674" x1="314.5" y1="58" x2="270" y2="78.5" gradientUnits="userSpaceOnUse">
      <stop offset=".108011" stop-color="#37474F"/>
      <stop offset=".467266" stop-color="#4F6A77"/>
      <stop offset=".847318" stop-color="#37474F"/>
    </linearGradient>
    <linearGradient id="xo1031oh2__paint34_linear_1113_674" x1="-2.5" y1="84" x2="168" y2="118" gradientUnits="userSpaceOnUse">
      <stop stop-color="#D842FF"/>
      <stop offset=".302083" stop-color="#1B73FF"/>
      <stop offset=".625" stop-color="#D842FF"/>
      <stop offset="1" stop-color="#1B73FF"/>
    </linearGradient>
    <filter id="xo1031oh2__filter0_f_1113_674" x="141" y="123" width="14" height="14" filterUnits="userSpaceOnUse" color-interpolation-filters="sRGB">
      <feFlood flood-opacity="0" result="BackgroundImageFix"/>
      <feBlend in="SourceGraphic" in2="BackgroundImageFix" result="shape"/>
      <feGaussianBlur stdDeviation="2" result="effect1_foregroundBlur_1113_674"/>
    </filter>
    <filter id="xo1031oh2__filter1_f_1113_674" x="326" y="66" width="14" height="14" filterUnits="userSpaceOnUse" color-interpolation-filters="sRGB">
      <feFlood flood-opacity="0" result="BackgroundImageFix"/>
      <feBlend in="SourceGraphic" in2="BackgroundImageFix" result="shape"/>
      <feGaussianBlur stdDeviation="2" result="effect1_foregroundBlur_1113_674"/>
    </filter>
    <filter id="xo1031oh2__filter2_f_1113_674" x="198" y="45" width="8" height="8" filterUnits="userSpaceOnUse" color-interpolation-filters="sRGB">
      <feFlood flood-opacity="0" result="BackgroundImageFix"/>
      <feBlend in="SourceGraphic" in2="BackgroundImageFix" result="shape"/>
      <feGaussianBlur stdDeviation="1" result="effect1_foregroundBlur_1113_674"/>
    </filter>
    <filter id="xo1031oh2__filter3_f_1113_674" x="158" y="159" width="39" height="75" filterUnits="userSpaceOnUse" color-interpolation-filters="sRGB">
      <feFlood flood-opacity="0" result="BackgroundImageFix"/>
      <feBlend in="SourceGraphic" in2="BackgroundImageFix" result="shape"/>
      <feGaussianBlur stdDeviation="7.5" result="effect1_foregroundBlur_1113_674"/>
    </filter>
    <filter id="xo1031oh2__filter4_i_1113_674" x="205" y="67.2131" width="116" height="29.1449" filterUnits="userSpaceOnUse" color-interpolation-filters="sRGB">
      <feFlood flood-opacity="0" result="BackgroundImageFix"/>
      <feBlend in="SourceGraphic" in2="BackgroundImageFix" result="shape"/>
      <feColorMatrix in="SourceAlpha" values="0 0 0 0 0 0 0 0 0 0 0 0 0 0 0 0 0 0 127 0" result="hardAlpha"/>
      <feOffset/>
      <feGaussianBlur stdDeviation="2"/>
      <feComposite in2="hardAlpha" operator="arithmetic" k2="-1" k3="1"/>
      <feColorMatrix values="0 0 0 0 0 0 0 0 0 0 0 0 0 0 0 0 0 0 0.2 0"/>
      <feBlend in2="shape" result="effect1_innerShadow_1113_674"/>
    </filter>
    <radialGradient id="xo1031oh2__paint25_radial_1113_674" cx="0" cy="0" r="1" gradientUnits="userSpaceOnUse" gradientTransform="matrix(0 23.2375 -84.5 0 264.5 157.358)">
      <stop stop-color="#131313"/>
      <stop offset=".473958" stop-color="#262626"/>
      <stop offset="1" stop-color="#383838"/>
    </radialGradient>
    <radialGradient id="xo1031oh2__paint29_radial_1113_674" cx="0" cy="0" r="1" gradientUnits="userSpaceOnUse" gradientTransform="matrix(0 23 -58 0 263 73)">
      <stop stop-color="#919191"/>
      <stop offset="1" stop-color="#737373"/>
    </radialGradient>
    <clipPath id="xo1031oh2__clip0_1113_674">
      <path fill="#fff" transform="translate(104)" d="M0 0H241V246H0z"/>
    </clipPath>
  </defs>
</svg>
